<?xml version="1.0" encoding="UTF-8" standalone="no"?>
<!-- Generator: Adobe Illustrator 27.5.0, SVG Export Plug-In . SVG Version: 6.00 Build 0)  -->

<svg
   xmlns:dc="http://purl.org/dc/elements/1.1/"
   xmlns:cc="http://creativecommons.org/ns#"
   xmlns:rdf="http://www.w3.org/1999/02/22-rdf-syntax-ns#"
   xmlns:svg="http://www.w3.org/2000/svg"
   xmlns="http://www.w3.org/2000/svg"
   xmlns:xlink="http://www.w3.org/1999/xlink"
   xmlns:sodipodi="http://sodipodi.sourceforge.net/DTD/sodipodi-0.dtd"
   xmlns:inkscape="http://www.inkscape.org/namespaces/inkscape"
   version="1.1"
   x="0px"
   y="0px"
   viewBox="0 0 750 500"
   style="enable-background:new 0 0 750 500;"
   xml:space="preserve"
   id="svg226"
   sodipodi:docname="teaching.svg"
   inkscape:version="0.92.3 (2405546, 2018-03-11)"><metadata
   id="metadata232"><rdf:RDF><cc:Work
       rdf:about=""><dc:format>image/svg+xml</dc:format><dc:type
         rdf:resource="http://purl.org/dc/dcmitype/StillImage" /></cc:Work></rdf:RDF></metadata><defs
   id="defs230" /><sodipodi:namedview
   pagecolor="#ffffff"
   bordercolor="#666666"
   borderopacity="1"
   objecttolerance="10"
   gridtolerance="10"
   guidetolerance="10"
   inkscape:pageopacity="0"
   inkscape:pageshadow="2"
   inkscape:window-width="1280"
   inkscape:window-height="739"
   id="namedview228"
   showgrid="false"
   inkscape:zoom="0.472"
   inkscape:cx="375"
   inkscape:cy="124.78211"
   inkscape:window-x="-9"
   inkscape:window-y="-9"
   inkscape:window-maximized="1"
   inkscape:current-layer="BACKGROUND" />
<g
   id="BACKGROUND"
   style="fill:#80ffb3">
	
</g>
<g
   id="OBJECTS">
	<g
   id="g17">
		<rect
   x="461.171"
   y="436.949"
   style="fill:#004455"
   width="288.829"
   height="63.05"
   id="rect5" />
		<polygon
   style="fill:#00aad4"
   points="461.171,436.949 461.171,489.37 750,467.243 750,436.949   "
   id="polygon7" />
		<rect
   x="435.111"
   y="434.333"
   style="fill:#004455"
   width="314.889"
   height="19.883"
   id="rect9" />
		<g
   id="g15">
			<polygon
   style="fill:#00aad4"
   points="564.25,454.216 550.122,454.216 565.558,434.333 579.685,434.333    "
   id="polygon11" />
			<polygon
   style="fill:#00aad4"
   points="580.993,454.216 573.93,454.216 589.365,434.333 596.429,434.333    "
   id="polygon13" />
		</g>
	</g>
	<g
   id="g25">
		<path
   style="fill:#006680"
   d="M718.331,15.345H31.669c-7.708,0-13.957,6.249-13.957,13.957V400.71    c0,7.708,6.249,13.957,13.957,13.957h686.662c7.708,0,13.957-6.249,13.957-13.957V29.302    C732.288,21.594,726.039,15.345,718.331,15.345z"
   id="path19" />
		<path
   style="fill:#1E3B39;"
   d="M705.524,30.123H44.476c-6.62,0-11.986,5.366-11.986,11.986v345.794    c0,6.62,5.367,11.986,11.986,11.986h661.048c6.62,0,11.986-5.366,11.986-11.986V42.109    C717.51,35.489,712.144,30.123,705.524,30.123z"
   id="path21" />
		<path
   style="fill:#1F5A4E;"
   d="M717.51,399.889H59.746V82.125c0-11.874,9.626-21.5,21.5-21.5H717.51V399.889z"
   id="path23" />
	</g>
	<g
   id="g63">
		<g
   id="g51">
			<path
   style="fill:#A9AB27;"
   d="M709.313,346.889c-3.786-2.777-11.769,6.964-13.563,9.437c-2.296,3.167-3.986,6.599-5.208,10.194     c-0.796-5.083-2.438-9.999-4.484-14.765c5.18-5.468,11.818-11.573,14.989-18.524c1.584-3.473,1.719-7.054,1.258-10.791     c-0.243-1.971-0.085-4.282-2.174-5.01c-5.991-2.088-10.868,7.761-12.572,11.717c-2.482,5.763-3.834,12.178-3.384,18.466     c-0.724-1.511-1.473-3.008-2.238-4.489c-3.982-7.704-7.091-15.275-8.466-23.463c4.832,0.568,10.564-5.761,13.377-8.66     c3.983-4.104,9.489-11.721,7.869-17.888c-0.139-0.53-0.599-0.785-1.103-0.84c-5.013-0.55-11.619,3.1-14.768,6.822     c-3.401,4.02-5.16,9.184-6.063,14.349c-0.066-1.225-0.101-2.462-0.083-3.722c0.119-8.463,1.956-16.989,5.212-24.859     c0.059,0.007,0.118,0.014,0.182,0.012c2.965-0.104,4.933-1.6,7.058-3.562c2.928-2.703,5.765-5.578,8.263-8.685     c4.403-5.475,7.41-11.838,7.349-18.961c-0.006-0.73-0.645-1.08-1.294-0.986c-6.604,0.954-12.314,4.773-16.295,10.065     c-3.959,5.264-7.757,13.892-7.189,20.628c0.019,0.229,0.115,0.505,0.348,0.606c0.092,0.04,0.184,0.08,0.276,0.121     c-2.281,4.658-3.899,9.563-4.901,14.585c-1.006-5.623-3.364-10.899-7.72-14.822c-2.17-1.955-4.711-3.466-7.487-4.383     c-1.224-0.405-5.478-1.847-6.587-0.546c-1.165,1.367,0.549,4.105,0.979,5.386c1.09,3.24,2.034,6.663,3.902,9.565     c3.495,5.429,9.438,8.358,15.696,9.144c0.195,0.024,0.361,0.002,0.504-0.05c-0.603,4.75-0.654,9.572-0.169,14.365     c-0.154,0.386-0.137,0.841,0.137,1.205c0.672,5.596,2.071,11.141,4.195,16.467c2.586,6.488,5.887,12.74,8.386,19.238     c-3.218-3.666-7.036-6.839-10.306-9.281c-2.152-1.607-4.319-3.16-6.482-4.699c0.865-5.144,0.782-10.339-0.573-15.399     c-0.462-1.726-1.941-8.707-4.909-7.937c-3.06,0.794-2.664,8.222-2.431,10.376c0.39,3.619,1.809,7.003,3.792,10.025     c-3.513-2.509-8.435-5.123-11.104-8.556c-2.186-2.813-2.264-6.547-2.378-9.927c-0.19-5.658-1.223-10.761-5.217-14.876     c-3.404-3.506-8.053-5.455-12.669-6.794c-0.708-0.205-1.219,0.459-1.105,1.106c1.229,7.009,2.593,14.21,6.326,20.385     c2.622,4.339,6.797,6.235,10.77,9.049c4.837,3.425,9.205,7.563,14.056,11.032c-4.131-1.431-8.638-2.229-12.944-1.536     c-4.495,0.723-8.491,3.413-12.401,5.574c-0.751,0.415-0.731,1.55,0,1.97c9.812,5.633,21.328,4.598,30.047-2.561     c0.02-0.016,0.033-0.034,0.051-0.051c5.158,3.717,10.45,7.438,14.769,12.144c2.36,2.572,4.044,5.176,5.222,7.94     c0.578,2.437,0.982,4.928,1.122,7.501c0.436,8.002-1.885,15.207-5.049,22.171c0.015-0.196,0.041-0.391,0.047-0.588     c1.198-7.913,0.333-15.883-2.974-23.297c-1.521-3.409-3.613-6.671-6.72-8.839c-3.823-2.668-8.654-3.287-12.661-5.613     c-0.721-0.418-1.875-0.068-2.042,0.831c-1.371,7.383,1.051,15.131,6.973,19.942c3.578,2.907,8.297,4.199,11.239,7.885     c3.206,4.016,3.356,8.61,2.877,13.485c-0.057,0.576,0.39,0.976,0.9,1.095c-1.266,2.521-2.582,5.029-3.859,7.548     c-1.233,2.433,2.272,4.531,3.681,2.151c4.907-8.287,9.448-17.407,10.952-27.035c5.889-3.969,10.846-9.132,14.41-15.305     c1.815-3.144,3.265-6.51,4.276-9.998C709.763,352.338,711.394,348.415,709.313,346.889z"
   id="path27" />
			<g
   id="g49">
				<path
   style="fill:#D9DB39;"
   d="M677.714,365.117c-1.341-2.3-3.026-4.391-5.229-5.928c-0.071-0.05-0.145-0.094-0.217-0.142      l-7.277,15.484c1.985,1.554,4.289,2.655,6.442,3.951L677.714,365.117z"
   id="path29" />
				<path
   style="fill:#D9DB39;"
   d="M677.347,348.241l-0.876,1.864c1.527,1.323,2.998,2.706,4.365,4.196      c0.45,0.49,0.867,0.982,1.269,1.475l0.961-2.044C681.259,351.734,679.293,349.89,677.347,348.241z"
   id="path31" />
				<path
   style="fill:#D9DB39;"
   d="M683.21,353.423l16.917-35.995c-5.99-2.084-10.866,7.762-12.57,11.718      c-2.482,5.763-3.834,12.178-3.384,18.466c-0.724-1.511-1.473-3.008-2.238-4.489c-0.387-0.749-0.758-1.496-1.128-2.243      l-1.591,3.386C680.608,347.301,681.989,350.338,683.21,353.423z"
   id="path33" />
				<path
   style="fill:#D9DB39;"
   d="M700.497,350.851c-2.159,2.131-3.995,4.439-4.746,5.475c-2.296,3.167-3.986,6.599-5.208,10.194      c-0.236-1.508-0.554-2.999-0.928-4.478l-2.616,5.565c0.078,0.706,0.142,1.416,0.181,2.134c0.239,4.396-0.357,8.55-1.464,12.557      L700.497,350.851z"
   id="path35" />
				<path
   style="fill:#D9DB39;"
   d="M682.155,377.915l-3.935,8.374c1.008,2.953,0.976,6.127,0.651,9.431      c-0.027,0.273,0.062,0.506,0.215,0.689l3.351-7.13C682.84,385.468,682.763,381.658,682.155,377.915z"
   id="path37" />
				<path
   style="fill:#D9DB39;"
   d="M650.893,284.32c0.591,1.758,1.144,3.568,1.821,5.321l4.632-9.856      c-0.28-0.107-0.56-0.211-0.845-0.305c-0.931-0.308-3.61-1.212-5.329-1.057l-1.427,3.036      C650.072,282.541,650.664,283.638,650.893,284.32z"
   id="path39" />
				<path
   style="fill:#D9DB39;"
   d="M643.936,303.981c-1.045-1.077-2.218-1.992-3.46-2.802l-6.182,13.154      c0.629,1.491,1.348,2.945,2.194,4.345c0.476,0.788,1.005,1.494,1.573,2.141l7.193-15.306      C644.855,304.989,644.418,304.477,643.936,303.981z"
   id="path41" />
				<path
   style="fill:#D9DB39;"
   d="M635.969,342.797c-0.751,0.415-0.731,1.55,0,1.97c0.582,0.334,1.171,0.641,1.764,0.928      l2.497-5.313C638.786,341.179,637.371,342.022,635.969,342.797z"
   id="path43" />
				<path
   style="fill:#D9DB39;"
   d="M659.686,298.984l6.195-13.182c-0.586-0.676-1.213-1.326-1.894-1.939      c-0.14-0.126-0.286-0.245-0.43-0.368l-6.308,13.422C658.008,297.676,658.821,298.367,659.686,298.984z"
   id="path45" />
				<path
   style="fill:#D9DB39;"
   d="M649.251,321.189c-0.047-0.786-0.072-1.568-0.097-2.332c-0.046-1.378-0.144-2.722-0.321-4.028      l-4.995,10.629c0.861,0.559,1.734,1.117,2.605,1.707L649.251,321.189z"
   id="path47" />
			</g>
		</g>
		<g
   id="g61"
   style="fill:#005522">
			<polygon
   style="fill:#005522"
   points="694.014,434.333 661.541,434.333 646.859,377.503 708.695,377.503    "
   id="polygon53" />
			<g
   id="g59"
   style="fill:#005522">
				<polygon
   style="fill:#005522"
   points="691.451,377.503 679.39,377.503 666.867,434.333 678.928,434.333     "
   id="polygon55" />
				<polygon
   style="fill:#005522"
   points="700.497,377.503 694.466,377.503 681.944,434.333 687.974,434.333     "
   id="polygon57" />
			</g>
		</g>
	</g>
	<g
   id="g199">
		<g
   id="g71">
			<path
   style="fill:#00222b"
   d="M103.779,488.34c0.539,3.902,1.187,7.786,1.9,11.66h78.433     c1.517-27.748-0.718-55.688-6.321-82.912c-2.128-10.339-6.222-27.784-19.123-28.432c-16.972-0.853-33.463,5.099-49.413,10.964     c-4.13,1.518-8.26,3.037-12.389,4.556c-0.609,0.224-1.239,0.461-1.701,0.917c-0.84,0.828-0.915,2.137-0.909,3.316     c0.063,11.284,2.824,22.353,4.558,33.503C101.205,457.294,101.648,472.92,103.779,488.34z"
   id="path65" />
			<path
   style="fill:#004455"
   d="M119.204,500h10.597c0.94-9.847,2.843-19.577,5.817-29.059c2.203-7.025,4.713-9.542,10.253-13.69     c6.348-4.753,12.166-10.879,14.477-18.388c0.204-0.663,0.38-1.336,0.527-2.02c-7.352,4.704-15.236,8.573-23.45,11.522     c-3.982,1.43-8.145,2.902-12.33,3.579c-3.043,0.492-5.037,0.329-6.839,3.516c-2.29,4.05-0.035,14.128,0.06,18.705     C118.496,482.773,118.679,491.404,119.204,500z"
   id="path67" />
			<path
   style="fill:#00222b"
   d="M126.408,500l0.704-140.767c-0.033-0.441-0.076-0.911-0.318-1.258     c-0.326-0.467-0.905-0.566-1.426-0.626c-14.26-1.626-26.056,0.738-40.264,2.719c-16.414,20.8-33.279,42.48-40.633,69.164     c-6.291,22.827-4.988,47.22-0.283,70.768H126.408z"
   id="path69" />
		</g>
		<path
   style="fill:#11111D;"
   d="M169.932,170.957c-0.336-4.335-0.558-8.679-0.666-13.026c-0.138-5.589-0.11-11.191,0.153-16.776    c0.23-4.872,2.135-9.025,3.412-13.712c2.066-7.58,2.639-15.501,2.498-23.356c-0.081-4.535-0.401-9.099-1.558-13.486    c-1.9-7.202-6.094-13.781-11.82-18.544c-7.318-6.086-16.775-9.051-26.192-10.433c-27-3.964-57.262,3.761-75.389,25.014    c-6.591,7.727-12.686,16.9-14.728,26.936c-4.591,22.57,0.064,47.02-9.047,68.173c24.568,12.491,48.405,28.78,75.833,31.487    c20.494,2.023,41.685-4.179,57.855-16.932c0.67-0.528,1.35-1.09,1.743-1.847c0.62-1.195,0.415-2.632,0.204-3.961    C171.206,184.016,170.44,177.496,169.932,170.957z"
   id="path73" />
		<g
   id="g87">
			<path
   style="fill:#F4A574;"
   d="M306.154,252.919c0.06-2.138-1.011-4.436-3.001-5.219c0.796-1.26,0.775-2.989-0.053-4.229     c-0.827-1.24-2.415-1.923-3.884-1.672c1.218-0.615,1.482-2.407,0.74-3.552c-0.742-1.145-2.191-1.669-3.555-1.654     c-1.364,0.015-2.677,0.484-3.96,0.948c-2.924,1.056-5.848,2.113-8.771,3.169c1.671-3.177,3.47-6.497,6.495-8.429     c2.266-1.447,4.982-1.956,7.539-2.786c2.557-0.83,5.176-2.165,6.39-4.564c0.439-0.868,0.668-1.842,0.662-2.815     c-5.113,0.594-10.231,1.189-15.297,2.101c-1.269,0.228-2.552,0.482-3.704,1.061c-1.322,0.663-2.402,1.717-3.424,2.787     c-6.047,6.327-10.367,13.648-14.149,21.47c-3.44,7.113-2.834,16.308-4.948,23.942c-0.224,0.809-0.916,1.584-1.867,2.34     c-17.82,8.676-54.355,17.548-61.742,23.117c0,0-23.191-31.272-33.323-61.879l-49.735,1.048c1.074,4.718,2.788,9.585,5.535,13.228     c7.55,10.014,58.678,83.325,69.762,83.97c10.308,0.599,55.564-31.025,75.496-43.516c1.679-1.052,3.594-1.715,5.575-1.766     c0.223-0.006,0.446-0.004,0.67,0.004c1.057,0.04,2.112,0.237,3.167,0.155c2.395-0.185,4.492-1.806,5.843-3.792     c1.351-1.986,2.077-4.32,2.784-6.615c0.686-2.227,4.225-17.421,6.101-17.109c0.868,0.145,1.487,0.889,2.211,1.389     c1.787,1.235,4.311,0.923,6.145-0.24c1.835-1.164,3.106-3.023,4.195-4.903C305.126,257.059,306.095,255.057,306.154,252.919z"
   id="path75" />
			<path
   style="fill:#E76553;"
   d="M234.334,313.192c-1.664,0.453-3.324,0.922-4.976,1.419c-4.067,1.226-8.741,2.52-12.323,0.236     c-5.151-3.283-4.073-10.16-2.104-14.909c1.421-3.428,2.344-5.525,1.969-8.205c-8.069,2.723-14.595,5.18-17.275,7.201     c0,0-23.191-31.272-33.323-61.879l-49.735,1.048c1.074,4.718,2.788,9.585,5.535,13.228c7.55,10.014,58.678,83.325,69.762,83.97     C197.96,335.657,216.266,324.75,234.334,313.192z"
   id="path77" />
			<path
   style="fill:#FFFFFF;"
   d="M306.07,216.792l-4.341-6.866c-0.479-0.758-1.628-0.601-1.886,0.258l-11.495,38.233     c-0.166,0.553,0.147,1.137,0.7,1.303l5.874,1.766c0.553,0.166,1.137-0.147,1.303-0.701l9.961-33.134     C306.275,217.361,306.232,217.048,306.07,216.792z"
   id="path79" />
			<path
   style="fill:#EF875B;"
   d="M282.791,242.648c1.309-0.573,2.724-0.853,4.113-1.187c4.001-0.962,7.886-2.405,11.546-4.286     c0.669,1.464,0.203,3.245-0.755,4.538c-0.958,1.293-2.337,2.198-3.685,3.076c-2.955,1.924-8.235,3.777-8.217,7.878     c0.006,1.419,0.422,2.799,0.706,4.189c0.934,4.584,0.401,9.455-1.503,13.728c-1.617,3.63-4.634,7.058-8.588,7.452     c-0.885,0.088-1.826,0.005-2.576-0.473c-5.522-3.518-4.642-13.322-3.639-18.699C271.551,251.575,275.955,245.652,282.791,242.648     z"
   id="path81" />
			<path
   style="fill:#008066"
   d="M154.716,211.128c-7.506-2.301-16.389-2.93-23.166-2.151c-2.189,0.252-6.866,0.57-8.543,2.149     c-1.578,1.486-1.898,5.916-2.238,7.982c-1.026,6.239-0.808,12.64,0.107,18.877c1.298,8.847,3.966,17.425,6.455,26.014     c5.325,18.378,9.865,36.984,13.603,55.75c10.852-0.128,21.645-3.505,30.635-9.584c5.208-3.522,9.777-7.89,14.319-12.236     c3.47-3.32,13.394-12.399,9.82-18.004c-1.643-2.577-5.488-3.997-7.438-6.656c-2.312-3.153-3.808-6.866-4.944-10.582     c-2.653-8.675-4.287-17.577-7.287-26.191c-2.982-8.562-5.213-16.918-13.498-21.97     C160.266,213.137,157.592,212.01,154.716,211.128z"
   id="path83" />
			<path
   style="fill:#006680"
   d="M195.71,279.925c-0.103-0.161-0.237-0.306-0.355-0.458c-4.096,4.458-7.413,9.727-11.966,13.749     c-0.912,0.805-1.919,1.581-3.111,1.827c-1.192,0.245-2.605-0.195-3.129-1.293c-0.343-0.718-0.254-1.561-0.119-2.346     c0.743-4.327,2.632-8.377,3.603-12.659c1.325-5.847,0.901-11.955-0.056-17.873c-0.595-3.679-1.426-7.411-3.406-10.568     c-1.917-3.057-4.781-5.374-7.487-7.76c-5.008-4.418-9.638-9.265-13.824-14.468c-1.4-1.74-3.308-5.845-5.553-6.486     c-2.437-0.696-6.305,2.084-8.278,3.219c-7.231,4.16-14.52,8.366-21.105,13.449c1.312,8.751,3.947,17.242,6.41,25.743     c5.325,18.378,9.865,36.984,13.603,55.75c10.852-0.128,21.645-3.505,30.635-9.584c5.208-3.522,9.777-7.89,14.319-12.237     C189.359,294.609,199.283,285.529,195.71,279.925z"
   id="path85" />
		</g>
		<g
   id="g95"
   style="fill:#008066">
			<path
   style="fill:#008066"
   d="M75.319,208.853h66.653c0,0,13.815,19.891,22.218,31.697c7.182,10.09,17.891,18.984,16.242,33.384     c-0.657,5.735-3.005,11.072-5.725,16.016c-5.556,10.103-12.791,19.074-17.579,29.642c-4.788,10.568-6.811,23.703-1.505,33.967     c1.359,2.629,3.18,5.046,3.86,7.977c0.576,2.48,0.278,5.114,0.722,7.627c0.89,5.04,4.5,10.114,6.448,14.826     c2.321,5.614,6.308,10.767,8.288,16.355c-8.227,4.957-15.908,11.68-24.977,14.705c-20.293,6.767-44.085,1.133-64.463-2.371     c-6.378-1.096-11.781-2.536-17.778-5.149c-1.582-0.689-18.148-9.339-17.765-10.012c8.175-14.367,17.59-27.694,30.517-37.372     c-0.488-1.81-0.728-3.701-0.711-5.589c1.083-0.433,2.254-0.597,3.4-0.476c-0.705-2.644-0.97-5.43-0.779-8.177     c1.27-0.236,2.54-0.471,3.81-0.707c-1.074-9.993-2.635-19.923-4.671-29.734c-1.556-7.497-1.965-15.445-3.966-22.715     c-3.136-11.389-6.684-22.63-9.645-34.086L75.319,208.853z"
   id="path89" />
			<path
   style="fill:#008066"
   d="M130.566,208.853h-37.28c5.107,8.296,37.257,30.851,40.119,32.02     C134.77,241.43,134.03,216.457,130.566,208.853z"
   id="path91" />
			<path
   style="fill:#008066"
   d="M138.386,294.571c-6.624,0.85-13.616,1.24-19.727-1.454     c-10.081-4.445-15.019-16.058-16.424-26.985c-0.85-6.608-0.753-13.28-1.092-19.922c-0.311-6.103-0.557-11.742-5.988-15.58     c-2.04-1.442-4.392-2.372-6.75-3.198c-2.614-0.915-5.435-1.724-8.119-1.04c-1.299,0.331-2.485,0.995-3.654,1.653     c-2.653,1.492-4.602,2.905-5.252,5.865c-0.8,3.645-0.944,7.766-1.501,11.514c-0.656,4.413-1.312,8.826-1.968,13.238     c2.961,11.456,6.509,22.696,9.645,34.086c2.002,7.27,2.41,15.218,3.967,22.715c2.036,9.81,3.597,19.74,4.671,29.734     c-1.27,0.236-2.54,0.471-3.81,0.707c-0.191,2.748,0.074,5.533,0.779,8.177c-1.147-0.121-2.318,0.043-3.4,0.476     c-0.017,1.888,0.224,3.779,0.711,5.589c-12.927,9.678-22.342,23.004-30.517,37.372c-0.383,0.672,16.183,9.322,17.765,10.012     c5.998,2.613,11.4,4.053,17.778,5.149c3.365,0.579,6.824,1.215,10.344,1.844c-0.1-0.083-0.201-0.166-0.301-0.248     c-7.546-6.223-15.662-13.466-16.658-23.195c-0.558-5.45,1.308-10.935,4.24-15.563c4.404-6.953,11.875-12.498,20.105-12.438     c-2.986-0.835-6.114-1.751-8.303-3.947c-2.189-2.196-2.988-6.107-0.855-8.357c2.19-2.311,6.053-1.698,8.888-0.251     s5.468,3.585,8.635,3.907c-5.051-4.74-10.482-10.319-10.442-17.245c0.038-6.673,5.47-12.351,11.678-14.801     c6.207-2.45,13.085-2.348,19.757-2.211c8.026,0.165,16.052,0.329,24.078,0.494c0.154-0.359,0.302-0.722,0.462-1.076     c4.788-10.568,12.024-19.539,17.579-29.642c0.974-1.771,1.896-3.595,2.715-5.468     C164.895,289.447,151.752,292.855,138.386,294.571z"
   id="path93" />
		</g>
		<g
   id="g101">
			<polygon
   style="fill:#F4A574;"
   points="129.652,170.101 127.76,219.422 106.977,219.422 104.897,170.101    "
   id="polygon97" />
			<path
   style="fill:#E76553;"
   d="M128.067,211.408l1.585-41.307h-24.755l1.323,31.368c5.376,3.614,11.15,6.378,17.067,8.279     C124.695,210.2,126.324,210.796,128.067,211.408z"
   id="path99" />
		</g>
		<path
   style="fill:#F4A574;"
   d="M172.203,109.645c-1.038-7.037-3.07-13.061-8.433-18.146c-2.096-1.987-4.253-3.935-6.692-5.521    c-7.091-4.611-15.716-6.213-24.045-6.79c-7.043-0.488-14.186,0.305-20.874,2.458c-16.295,5.245-29.537,18.421-34.403,34.232    c-2.813,9.137-2.802,18.498-2.218,27.885c1.598,25.693,23.516,41.353,47.734,46.897c6.697,1.533,18.221,5.349,24.679,1.953    c10.919-5.741,21.3-17.969,22.255-30.198c0.434-5.554-0.868-11.054-0.868-16.601c0-5.178,1.463-10.233,1.825-15.426    c0.211-3.029,1.46-5.671,1.658-8.698C173.082,117.712,172.785,113.589,172.203,109.645z"
   id="path103" />
		<g
   id="g127">
			<path
   style="fill:#11111D;"
   d="M157.182,130.371c3.992-1.203,8.196,0.272,12.292,0.358c0.385,0.008,1.889,0.111,2.083-0.392     c-2.558,11.041-5.402,12.796-9.914,14.809c-2.515,1.121-5.526,2.148-8.1,0.53c-1.236-0.778-2.233-2.333-2.577-4.76     c-0.56-3.949,0.63-6.83,2.441-8.416C154.637,131.422,155.898,130.758,157.182,130.371z"
   id="path105" />
			<path
   style="fill:#FFFFFF;"
   d="M157.115,133.466c2.138-0.561,4.372-0.374,6.547-0.127c2.005,0.228,3.724,0.276,5.615,0.114     c0.349-0.03-0.401,4.435-0.485,4.793c-0.412,1.755-1.102,3.491-2.427,4.851c-1.303,1.337-2.927,2.046-4.719,2.636     c-2.172,0.714-5.804,1.272-7.875,0.118c-1.136-0.633-2.052-1.896-2.369-3.863c-0.515-3.2,0.579-5.53,2.244-6.81     C154.775,134.31,155.935,133.776,157.115,133.466z"
   id="path107" />
			<g
   id="g125">
				<defs
   id="defs110">
					<path
   id="SVGID_1_"
   d="M157.115,133.466c2.138-0.561,4.372-0.374,6.547-0.127c2.005,0.228,3.724,0.276,5.615,0.114       c0.349-0.03-0.401,4.435-0.485,4.793c-0.412,1.755-1.102,3.491-2.427,4.851c-1.303,1.337-2.927,2.046-4.719,2.636       c-2.172,0.714-5.804,1.272-7.875,0.118c-1.136-0.633-2.052-1.896-2.369-3.863c-0.515-3.2,0.579-5.53,2.244-6.81       C154.775,134.31,155.935,133.776,157.115,133.466z" />
				</defs>
				<clipPath
   id="SVGID_00000051342514540557274180000010401220641138225038_">
					<use
   xlink:href="#SVGID_1_"
   style="overflow:visible;"
   id="use112" />
				</clipPath>
				<g
   style="clip-path:url(#SVGID_00000051342514540557274180000010401220641138225038_);"
   clip-path="url(#SVGID_00000051342514540557274180000010401220641138225038_)"
   id="g123">
					<path
   style="fill:#A62929;"
   d="M166.021,140.13c-0.351,6.265-4.263,11.128-8.739,10.862c-4.475-0.266-7.819-5.561-7.468-11.825       c0.351-6.265,4.263-11.128,8.739-10.862C163.028,128.571,166.371,133.865,166.021,140.13z"
   id="path115" />
					<path
   style="fill:#4A101A;"
   d="M164.001,140.01c-0.263,4.704-3.201,8.354-6.561,8.155c-3.36-0.2-5.87-4.175-5.606-8.878       c0.263-4.703,3.201-8.354,6.561-8.155C161.755,131.332,164.265,135.307,164.001,140.01z"
   id="path117" />
					<path
   style="fill:#FFFFFF;"
   d="M169.095,135.886c0,1.477-2.089,2.674-4.665,2.674c-2.576,0-4.665-1.197-4.665-2.674       c0-1.477,2.089-2.674,4.665-2.674C167.007,133.212,169.095,134.409,169.095,135.886z"
   id="path119" />
					<path
   style="fill:#FCEAEB;"
   d="M161.421,145.072c-0.1,1.777-1.683,3.128-3.536,3.018c-1.853-0.11-3.275-1.64-3.175-3.417       c0.099-1.777,1.683-3.128,3.536-3.018C160.099,141.765,161.521,143.295,161.421,145.072z"
   id="path121" />
				</g>
			</g>
		</g>
		<g
   id="g151">
			<path
   style="fill:#11111D;"
   d="M120.988,126.802c-7.376-1.516-15.628,1.866-22.563-1.328c-0.164,3.522,1.025,6.863,2.739,9.977     c0.56,1.017,1.183,2.019,2.033,2.853c0.776,0.763,1.722,1.368,2.701,1.905c3.009,1.653,6.62,2.823,9.979,3.692     c3.576,0.925,7.575,1.466,11.064-0.03c2.022-0.867,3.653-2.602,4.216-5.309c0.917-4.404-1.031-7.618-3.994-9.387     C125.153,127.974,123.088,127.234,120.988,126.802z"
   id="path129" />
			<path
   style="fill:#FFFFFF;"
   d="M121.098,130.295c-3.499-0.633-7.153-0.421-10.711-0.143c-3.281,0.257-6.093,0.311-9.186,0.129     c-0.572-0.034,0.656,4.999,0.793,5.403c1.761,5.174,7.567,8.007,13.332,8.973c5.222,0.874,13.763,1.056,15.12-4.754     c0.842-3.607-0.948-6.234-3.672-7.676C124.926,131.247,123.028,130.645,121.098,130.295z"
   id="path131" />
			<g
   id="g149">
				<defs
   id="defs134">
					<path
   id="SVGID_00000165917776234730209630000001484025657669155230_"
   d="M121.098,130.295       c-3.499-0.633-7.153-0.421-10.711-0.143c-3.281,0.257-6.093,0.311-9.186,0.129c-0.572-0.034,0.656,4.999,0.793,5.403       c1.761,5.174,7.567,8.007,13.332,8.973c5.222,0.874,13.763,1.056,15.12-4.754c0.842-3.607-0.948-6.234-3.672-7.676       C124.926,131.247,123.028,130.645,121.098,130.295z" />
				</defs>
				<clipPath
   id="SVGID_00000098899560910167795390000018009246049920244927_">
					<use
   xlink:href="#SVGID_00000165917776234730209630000001484025657669155230_"
   style="overflow:visible;"
   id="use136" />
				</clipPath>
				<g
   style="clip-path:url(#SVGID_00000098899560910167795390000018009246049920244927_);"
   clip-path="url(#SVGID_00000098899560910167795390000018009246049920244927_)"
   id="g147">
					<path
   style="fill:#A62929;"
   d="M121.763,138.002c-0.475,6.557-5.768,11.646-11.822,11.368       c-6.054-0.279-10.577-5.82-10.103-12.377c0.475-6.557,5.768-11.647,11.822-11.368       C117.715,125.904,122.238,131.445,121.763,138.002z"
   id="path139" />
					<path
   style="fill:#4A101A;"
   d="M119.031,137.876c-0.356,4.923-4.33,8.744-8.876,8.535c-4.545-0.209-7.941-4.369-7.585-9.292       c0.356-4.923,4.33-8.744,8.876-8.535C115.992,128.793,119.388,132.953,119.031,137.876z"
   id="path141" />
					<path
   style="fill:#FFFFFF;"
   d="M125.923,133.56c0,1.546-2.826,2.799-6.311,2.799c-3.486,0-6.311-1.253-6.311-2.799       c0-1.546,2.826-2.799,6.311-2.799C123.097,130.761,125.923,132.014,125.923,133.56z"
   id="path143" />
					<path
   style="fill:#FCEAEB;"
   d="M115.541,143.174c-0.135,1.86-2.276,3.274-4.783,3.159c-2.507-0.115-4.43-1.717-4.296-3.577       c0.135-1.86,2.276-3.274,4.783-3.159C113.753,139.713,115.676,141.314,115.541,143.174z"
   id="path145" />
				</g>
			</g>
		</g>
		<g
   id="g157">
			<path
   style="fill:#F4A574;"
   d="M73.13,125.251c-3.146-3.391-8.353-5.788-12.356-3.47c-1.466,0.849-2.556,2.221-3.444,3.663     c-3.423,5.562-4.197,12.678-2.052,18.846c2.145,6.169,7.169,11.268,13.304,13.505c3.594,1.311,8.003,1.525,10.887-0.989     c2.295-2.001,3.071-5.258,3.078-8.303C82.566,140.413,78.64,131.189,73.13,125.251z"
   id="path153" />
			<path
   style="fill:#E76553;"
   d="M65.018,133.221c1.277-0.642,2.886-0.381,4.064,0.429c1.178,0.81,1.964,2.092,2.434,3.442     c0.076,0.218,0.097,0.537-0.124,0.603c-1.683-1.288-4.364-0.558-5.546,1.201c-1.182,1.759-1.039,4.17-0.092,6.066     c0.947,1.896,2.581,3.357,4.294,4.605c1.261,0.919,2.99,1.76,4.291,0.901c0.797-0.527,1.123-1.524,1.324-2.458     c1.052-4.883,0.107-10.166-2.571-14.382c-1.12-1.763-2.589-3.386-4.502-4.224c-1.913-0.838-4.326-0.748-5.907,0.616     c-1.358,1.171-1.904,3.099-1.711,4.882c0.146,1.344,0.57,2.807,1.604,3.642C62.679,136.591,63.051,134.21,65.018,133.221z"
   id="path155" />
		</g>
		<g
   id="g167">
			<path
   style="fill:#D02B42;"
   d="M128.138,175.099c4,5.083,9.637,8.713,15.596,8.199c2.44-0.211,4.939-1.163,6.797-3.171     c1.858-2.008,2.952-5.186,2.348-7.994c-0.054-0.253-0.126-0.51-0.278-0.691c-0.176-0.21-0.433-0.287-0.678-0.352     c-4.33-1.144-8.847-0.902-13.297-0.738c-2.252,0.083-4.506,0.156-6.749,0.023c-1.11-0.066-2.216-0.179-3.312-0.368     c-1.518-0.263-2.919-1.075-4.441-1.349C125.495,170.847,126.56,173.093,128.138,175.099z"
   id="path159" />
			<path
   style="fill:#FFFFFF;"
   d="M144.857,176.888c-3.182,0.769-6.515-0.417-9.027-2.028c-1.208-0.774-2.419-1.711-3.276-2.774     c-0.216-0.268-0.904-1.848-1.168-1.869c5.408,0.423,10.872,0.339,16.259-0.248c0.387-0.042,0.805-0.083,1.148,0.074     c0.977,0.446,0.184,3.261-0.166,3.945C147.935,175.34,146.562,176.476,144.857,176.888z"
   id="path161" />
			<path
   style="fill:#E84758;"
   d="M134.473,178.611c0.867,1.281,2.325,2.143,3.864,2.286c0.098,0.009,0.2,0.015,0.293-0.019     c0.103-0.038,0.183-0.122,0.246-0.213c0.315-0.454,0.257-1.092-0.019-1.57c-0.276-0.478-0.734-0.823-1.206-1.109     C136.756,177.444,132.755,176.074,134.473,178.611z"
   id="path163" />
			<path
   style="fill:#A0163D;"
   d="M141.217,167.697c-3.236,0.011-6.382,0.848-9.609,1.038c-4.073,0.239-7.671-0.719-11.293-2.072     c5.716,3.974,14.678,6.573,22.178,6.703c5.001,0.087,10.158-1.07,13.891-3.724C151.25,169.745,146.354,167.68,141.217,167.697z"
   id="path165" />
		</g>
		<g
   id="g173">
			<path
   style="fill:#11111D;"
   d="M180.675,93.118c1.357,3.808,2.209,7.843,2.542,11.864c0.735,8.873-0.68,17.817-0.197,26.711     c-6.184-0.481-11.332-5.221-16.947-8.16c-5.587-2.924-11.894-4.101-18.027-3.365c-0.588,0.071-1.215,0.151-1.743-0.145     c-0.587-0.329-0.909-1.039-1.176-1.711c-1.557-3.921-2.572-8.11-2.997-12.374c-0.168,4.758-0.691,9.5-1.562,14.161     c-15.241-3.256-31.57,0.386-44.53,9.933c-0.849-2.918-1.699-5.836-2.548-8.754c0.395,5.159,0.022,10.391-1.1,15.416     c-1.029-4.254-1.912-8.553-2.647-12.882c-0.235,24.492,0.031,48.99,0.8,73.469c-5.547,0.432-11.126,0.356-16.663-0.226     c0.081-17.617,3.353-35.136,2.62-52.734c-0.421-10.102-2.16-20.139-1.889-30.248c0.35-13.069,5.009-23.698,13.786-32.218     c4.273-4.148,9.716-6.446,15.131-8.279c7.917-2.681,16.053-4.548,24.273-5.573c9.426-1.175,18.956-0.266,28.249,1.708     c1.091,0.232,2.188,0.465,3.229,0.9c1.273,0.531,2.431,1.35,3.579,2.163c3.035,2.149,6.46,3.624,9.156,6.305     C175.867,82.862,178.768,87.765,180.675,93.118z"
   id="path169" />
			<path
   style="fill:#19192E;"
   d="M103.472,94.107c3.511-0.644,6.674-2.552,9.443-4.804c1.577,2.502,4.603,3.792,7.553,4.007     c2.95,0.214,5.88-0.493,8.753-1.194c4.918-1.201,10.469-2.902,12.574-7.506c2.368,3.113,6.277,4.99,10.187,4.891     s7.719-2.171,9.927-5.4c0.244-0.357,0.517-0.76,0.943-0.839c0.35-0.064,0.694,0.116,1.001,0.297     c4.378,2.585,7.902,6.589,9.91,11.26c-2.869-1.072-5.782-2.153-8.834-2.415c-3.051-0.262-6.312,0.396-8.594,2.438     c-1.561,1.397-2.941,3.526-5.033,3.426c-0.894-0.043-1.701-0.514-2.498-0.92c-2.623-1.338-5.616-2.092-8.533-1.685     c-5.29,0.738-9.301,5-12.73,9.094c-0.715,0.853-1.707,1.804-2.77,1.476c-0.538-0.166-0.921-0.626-1.305-1.039     c-2.315-2.488-5.777-3.864-9.168-3.643c-3.391,0.221-6.645,2.035-8.618,4.803c-0.896-2.43-3.153-4.306-5.706-4.745     c-2.553-0.438-5.306,0.578-6.961,2.57c-0.219-2.544-2.056-8.781,0.439-10.425C95.758,92.236,100.723,94.611,103.472,94.107z"
   id="path171" />
		</g>
		<g
   id="g179">
			<path
   style="fill:#F4A574;"
   d="M150.735,138.89c-0.011-0.234-0.021-0.467-0.029-0.699c-0.073-2.018-0.093-4.039-0.042-6.058     c0.032-1.23,0.085-2.5-0.288-3.652s-1.303-2.162-2.36-2.088c-1.467,0.103-2.248,2.026-2.639,3.673     c-2.151,9.064-1.944,18.63-1.636,28.025c0.051,1.548,1.633,3.186,2.861,3.727c1.429,0.629,3.086,0.233,4.493-0.285     c2.135-0.785,5.826-2.144,6.644-5.653c0.625-2.681-0.219-5.123-2.005-6.883c-1.125-1.108-2.424-2.013-3.326-3.369     C151.158,143.749,150.851,141.284,150.735,138.89z"
   id="path175" />
			<path
   style="fill:#E76553;"
   d="M152.677,157.092c-3.16,1.372-7.062,2.041-10.452,1.956c0.319,1.204,1.453,2.17,2.764,2.726     c1.573,0.667,3.577,0.561,5.301,0.583c0.961,0.012,1.93-0.002,2.869-0.174c0.961-0.176,1.867-0.514,2.765-0.849     c2.829-1.056,5.132-2.989,4.176-5.843c-0.478-1.424-2.482-2.241-4.092-2.518c0.469,0.495,0.442,1.229,0.106,1.795     c-0.336,0.566-0.93,0.993-1.543,1.359C153.981,156.48,153.346,156.802,152.677,157.092z"
   id="path177" />
		</g>
		<g
   id="g189">
			<path
   style="fill:#277B99;"
   d="M204.808,310.989l-64.086-36.121l-47.14,83.635l64.086,36.121     c4.217,2.377,9.561,0.885,11.938-3.331l38.533-68.366C210.516,318.71,209.025,313.365,204.808,310.989z"
   id="path181" />
			<path
   style="fill:#FFF7E6;"
   d="M203.806,312.238c2.884,1.625,3.904,5.281,2.278,8.164c-1.625,2.884-5.281,3.904-8.164,2.278     l-61.221-34.506l5.886-10.443L203.806,312.238z"
   id="path183" />
			<g
   id="g187">
				<path
   style="fill:#1C3D57;"
   d="M133.284,288.064l65.122,36.705c3.638,2.051,8.267,0.759,10.317-2.879      c2.051-3.638,0.759-8.266-2.879-10.317l-65.122-36.706l-1.552,2.754l65.122,36.705c2.12,1.195,2.872,3.891,1.677,6.011      c-1.195,2.12-3.891,2.872-6.011,1.677l-65.122-36.705L133.284,288.064z"
   id="path185" />
			</g>
		</g>
		<g
   id="g197">
			<path
   style="fill:#F4A574;"
   d="M196.468,347.775c-0.502-1.114-1.624-1.816-2.749-2.292c-3.64-1.542-7.657-1.344-11.521-1.244     c-1.731,0.045-8.11,1.009-8.888-0.826c-0.376-0.885-0.069-1.922,0.436-2.741c0.528-0.855,1.27-1.578,2.139-2.083     c1.312-0.762,2.849-1.011,4.288-1.492c2.428-0.812,4.679-2.396,5.861-4.667c0.851-1.635,1.051-3.644,0.483-5.373     c-0.337-1.024-1.569-1.409-2.429-0.759c-2.464,1.863-5.037,3.581-7.7,5.148c-3.045,1.792-6.546,2.456-9.884,3.617     c-1.738,0.604-3.487,1.351-4.786,2.654c-1.016,1.019-1.695,2.315-2.431,3.551c-2.611,4.382-6.078,8.181-9.519,11.946     c-0.694,0.759-1.425,1.544-2.388,1.906c-1.111,0.417-2.308,0.199-3.46-0.187c-0.202-0.113-0.4-0.216-0.607-0.338     c-9.424-5.539-55.409-30.891-65.847-32.264c0,0,5.425-38.844,19.762-67.985l-36.468-34.37c-2.561,4.148-4.766,8.855-5.366,13.412     c-1.648,12.526-17.737,97.49-10.229,105.781c7.508,8.291,57.859,25.586,78.243,29.718c9.543,1.934,17.939,4.036,25.014,5.278     c2.324,1.051,4.578,2.263,6.961,3.174c6.682,2.554,14.031,2.527,21.185,2.466c0.854-0.007,1.744-0.023,2.503-0.414     c1.582-0.815,1.992-2.872,3.15-4.224c0.927-1.082,2.33-1.696,3.17-2.846c0.971-1.328,1.01-3.102,1.58-4.645     c0.872-2.358,2.948-4.084,4.005-6.365c0.775-1.671,0.971-3.574,1.831-5.203c0.744-1.409,1.938-2.523,2.833-3.841     C196.534,350.952,197.123,349.227,196.468,347.775z"
   id="path191" />
			<path
   style="fill:#E76553;"
   d="M77.466,322.332c0,0,5.425-38.844,19.762-67.985l-36.468-34.37     c-2.561,4.148-4.766,8.855-5.366,13.412c-1.648,12.526-17.737,97.49-10.229,105.781c2.885,3.187,12.103,7.703,23.512,12.292     c-0.214-1.255-0.397-2.514-0.518-3.78c-0.748-7.813,1.564-16.941,8.647-20.322c3.783-1.805,7.864-1.46,11.889-1.129     C83.751,324.087,79.754,322.633,77.466,322.332z"
   id="path193" />
			<path
   style="fill:#008066"
   d="M98.532,243.917c0.31-6.202-0.091-12.343-1.972-18.259c-1.424-4.479-3.734-8.764-7.21-11.927     c-9.817-8.934-22.533-5.508-30.54,3.697c-5.678,6.527-10.343,13.98-12.952,22.268c-4.14,13.15-7.436,26.565-9.862,40.136     c-2.285,12.779-4.078,25.606-5.867,38.441c-0.049,0.355-0.085,0.759,0.149,1.031c0.171,0.199,0.444,0.27,0.699,0.332     c13.383,3.229,27.431,3.292,41.167,2.386c6.754-0.448,13.998-1.083,19.21-5.4c0.406-17.502,1.946-34.978,4.607-52.281     C96.996,257.606,98.192,250.725,98.532,243.917z"
   id="path195" />
		</g>
	</g>
	<g
   id="g223">
		<g
   id="g209">
			<path
   style="fill:#FFCECC;"
   d="M481.322,386.276c-5.539,0-10.03,4.491-10.03,10.03c0,5.54,4.491,10.03,10.03,10.03H598.93     v-20.061H481.322z"
   id="path201" />
			<path
   style="fill:#DA748D;"
   d="M476.003,386.276c-2.602,0-4.712,4.491-4.712,10.03c0,5.54,2.11,10.03,4.712,10.03h55.25v-20.061     H476.003z"
   id="path203" />
			<g
   id="g207">
				<path
   style="fill:#004455;stroke:#004455"
   d="M 604,408.982 H 478.897 c -6.99,0 -12.676,-5.686 -12.676,-12.676 0,-6.99 5.686,-12.676 12.676,-12.676 H 530.33009 604 v 5.291 H 478.897 c -4.072,0 -7.385,3.313 -7.385,7.385 0,4.072 3.313,7.385 7.385,7.385 H 604 Z"
   id="path205"
   inkscape:connector-curvature="0"
   sodipodi:nodetypes="cssscccssscc" />
			</g>
		</g>
		<g
   id="g221">
			<path
   style="fill:#FFCECC;"
   d="M481.322,411.627c-5.539,0-10.03,4.491-10.03,10.03c0,5.54,4.491,10.03,10.03,10.03H598.93     v-20.061H481.322z"
   id="path211" />
			<path
   style="fill:#DA748D;"
   d="M477.389,411.627c-3.368,0-6.098,4.491-6.098,10.03c0,5.54,2.73,10.03,6.098,10.03h71.499v-20.061     H477.389z"
   id="path213" />
			<g
   id="g219">
				<g
   id="g217">
					<path
   style="fill:#004455"
   d="M604,434.333H478.897c-6.99,0-12.676-5.686-12.676-12.676c0-6.99,5.686-12.676,12.676-12.676       H604v5.291H478.897c-4.072,0-7.385,3.313-7.385,7.385c0,4.072,3.313,7.385,7.385,7.385H604V434.333z"
   id="path215" />
				</g>
			</g>
		</g>
	</g>
</g>
</svg>