<?xml version="1.0" encoding="UTF-8" standalone="no"?>
<!-- Generator: Adobe Illustrator 27.5.0, SVG Export Plug-In . SVG Version: 6.00 Build 0)  -->

<svg
   xmlns:dc="http://purl.org/dc/elements/1.1/"
   xmlns:cc="http://creativecommons.org/ns#"
   xmlns:rdf="http://www.w3.org/1999/02/22-rdf-syntax-ns#"
   xmlns:svg="http://www.w3.org/2000/svg"
   xmlns="http://www.w3.org/2000/svg"
   xmlns:sodipodi="http://sodipodi.sourceforge.net/DTD/sodipodi-0.dtd"
   xmlns:inkscape="http://www.inkscape.org/namespaces/inkscape"
   version="1.1"
   x="0px"
   y="0px"
   viewBox="0 0 500 500"
   style="enable-background:new 0 0 500 500;"
   xml:space="preserve"
   id="svg754"
   sodipodi:docname="teacher.svg"
   inkscape:version="0.92.3 (2405546, 2018-03-11)"><metadata
   id="metadata760"><rdf:RDF><cc:Work
       rdf:about=""><dc:format>image/svg+xml</dc:format><dc:type
         rdf:resource="http://purl.org/dc/dcmitype/StillImage" /></cc:Work></rdf:RDF></metadata><defs
   id="defs758" /><sodipodi:namedview
   pagecolor="#ffffff"
   bordercolor="#666666"
   borderopacity="1"
   objecttolerance="10"
   gridtolerance="10"
   guidetolerance="10"
   inkscape:pageopacity="0"
   inkscape:pageshadow="2"
   inkscape:window-width="1280"
   inkscape:window-height="739"
   id="namedview756"
   showgrid="false"
   inkscape:zoom="0.944"
   inkscape:cx="250"
   inkscape:cy="250"
   inkscape:window-x="-9"
   inkscape:window-y="-9"
   inkscape:window-maximized="1"
   inkscape:current-layer="svg754" />
<g
   id="Background_Simple"
   transform="matrix(1.099997,0,0,1.1850632,-14.75931,-25.695662)">
	<g
   id="g6">
		<path
   style="fill:#92e3a9"
   d="M 375.099,87.764 C 369.243,83.556 363.244,79.458 357.139,75.38 327.545,55.612 293.493,35.423 257.811,30.837 c -6.004,-0.772 -12.089,-1.034 -18.116,-0.361 -23.602,2.636 -46.983,20.071 -65.844,33.406 -29.139,20.601 -56.392,44.281 -81.237,70.058 -21.571,22.38 -43.72,47.428 -56.285,76.448 -16.305,37.656 8.53,82.104 30.378,112.627 42.408,59.245 101.297,105.525 175.158,112.128 89.204,7.974 169.919,-62.035 200.216,-143.739 C 460.099,242.813 461.376,184.05 430.257,140.557 414.811,118.965 395.859,102.68 375.099,87.764 Z"
   id="path2"
   inkscape:connector-curvature="0" />
		<path
   style="opacity:0.7;fill:#ffffff"
   d="M 375.099,87.764 C 369.243,83.556 363.244,79.458 357.139,75.38 327.545,55.612 293.493,35.423 257.811,30.837 c -6.004,-0.772 -12.089,-1.034 -18.116,-0.361 -23.602,2.636 -46.983,20.071 -65.844,33.406 -29.139,20.601 -56.392,44.281 -81.237,70.058 -21.571,22.38 -43.72,47.428 -56.285,76.448 -16.305,37.656 8.53,82.104 30.378,112.627 42.408,59.245 101.297,105.525 175.158,112.128 89.204,7.974 169.919,-62.035 200.216,-143.739 C 460.099,242.813 461.376,184.05 430.257,140.557 414.811,118.965 395.859,102.68 375.099,87.764 Z"
   id="path4"
   inkscape:connector-curvature="0" />
	</g>
</g>






<g
   id="Character"
   transform="matrix(1.4473509,0,0,1.3271504,-292.26421,-120.21094)">
	<g
   id="g751">
		<path
   style="fill:#263238"
   d="m 373.807,135.773 c 0,0 -23.948,9.371 -24.208,21.605 -0.26,12.234 2.603,13.276 2.603,13.276 0,0 -22.647,7.809 -22.126,29.415 0.521,21.606 26.291,33.059 52.842,37.224 26.551,4.165 42.951,4.165 48.938,-6.768 5.987,-10.933 -4.425,-17.961 -3.124,-29.154 1.302,-11.193 16.139,-5.206 11.193,-31.757 -4.946,-26.551 -34.621,-45.554 -66.118,-33.841 z"
   id="path659"
   inkscape:connector-curvature="0" />
		<path
   style="fill:#ffffff;stroke:#263238;stroke-linecap:round;stroke-linejoin:round;stroke-miterlimit:10"
   d="m 309.026,323.753 c 0,0 10.102,8.606 14.031,8.98 3.929,0.374 4.243,-14.712 5.208,-15.774 0.966,-1.064 -17.742,4.361 -19.239,6.794 z"
   id="path661"
   inkscape:connector-curvature="0" />
		<g
   id="g673">
			<path
   style="fill:#ffffff;stroke:#263238;stroke-linecap:round;stroke-linejoin:round;stroke-miterlimit:10"
   d="m 324.328,460.309 c 0,0 -11.579,-10.653 -16.443,-59.286 -4.863,-48.633 20.379,-84.065 20.379,-84.065 l 68.086,6.253 c 0,0 32.19,37.285 11.811,135.941"
   id="path663"
   inkscape:connector-curvature="0" />
			<g
   id="g671">
				
					<line
   style="fill:none;stroke:#263238;stroke-linecap:round;stroke-linejoin:round;stroke-miterlimit:10"
   x1="363.52701"
   y1="396.58801"
   x2="367.185"
   y2="401.09799"
   id="line665" />
				
					<line
   style="fill:none;stroke:#263238;stroke-linecap:round;stroke-linejoin:round;stroke-miterlimit:10"
   x1="329.92899"
   y1="355.16599"
   x2="360.879"
   y2="393.32401"
   id="line667" />
				
					<line
   style="fill:none;stroke:#263238;stroke-linecap:round;stroke-linejoin:round;stroke-miterlimit:10"
   x1="350.34299"
   y1="392.93201"
   x2="379.35901"
   y2="448.74799"
   id="line669" />
			</g>
		</g>
		<g
   id="g683">
			<path
   style="fill:#92e3a9;stroke:#263238;stroke-linecap:round;stroke-linejoin:round;stroke-miterlimit:10"
   d="m 363.096,231.734 c 0,0 -30.194,7.022 -31.949,13.693 -1.755,6.671 -12.99,37.567 -11.937,44.237 1.053,6.671 5.266,12.639 6.671,17.906 1.404,5.266 -2.809,10.182 0.351,14.395 3.16,4.213 19.661,13.693 43.184,11.586 23.523,-2.107 28.438,-4.564 28.789,-10.182 0.351,-5.617 -0.702,-10.884 -0.702,-10.884 l 3.511,-15.448 c 0,0 11.586,-50.908 10.884,-51.961 -0.702,-1.053 -29.492,-9.831 -36.162,-11.235 -6.672,-1.405 -12.64,-2.107 -12.64,-2.107 z"
   id="path675"
   inkscape:connector-curvature="0" />
			<path
   style="fill:none;stroke:#263238;stroke-linecap:round;stroke-linejoin:round;stroke-miterlimit:10"
   d="m 369.98,316.278 c 0.718,0.469 1.461,0.94 2.23,1.409"
   id="path677"
   inkscape:connector-curvature="0" />
			<path
   style="fill:none;stroke:#263238;stroke-linecap:round;stroke-linejoin:round;stroke-miterlimit:10"
   d="m 354.127,302.543 c 0,0 4.499,5.883 13.799,12.351"
   id="path679"
   inkscape:connector-curvature="0" />
			<path
   style="fill:none;stroke:#263238;stroke-linecap:round;stroke-linejoin:round;stroke-miterlimit:10"
   d="m 393.909,276.097 c 0,0 -0.483,11.817 7.104,20.94"
   id="path681"
   inkscape:connector-curvature="0" />
		</g>
		<path
   style="fill:#ffffff;stroke:#263238;stroke-linecap:round;stroke-linejoin:round;stroke-miterlimit:10"
   d="m 362.618,209.901 c 0,0 -2.768,14.356 -4.843,23.178 -2.076,8.821 -5.881,24.389 5.016,22.486 10.897,-1.903 19.891,-20.41 20.41,-21.967 0.519,-1.557 2.422,-19.891 2.422,-19.891 z"
   id="path685"
   inkscape:connector-curvature="0" />
		<path
   style="fill:#263238"
   d="m 382.426,212.999 -16.281,10.396 13.766,13.533 c 1.062,-1.946 1.709,-3.365 1.837,-3.75 0.519,-1.557 2.422,-19.892 2.422,-19.892 z"
   id="path687"
   inkscape:connector-curvature="0" />
		<g
   id="g715">
			<path
   style="fill:#ffffff;stroke:#263238;stroke-linecap:round;stroke-linejoin:round;stroke-miterlimit:10"
   d="m 358.999,170.687 c 0,0 -6.729,25.17 -5.732,30.154 0.997,4.984 9.221,24.422 15.7,26.166 6.479,1.744 30.652,-7.975 33.393,-12.211 2.741,-4.237 10.965,-30.652 10.965,-30.652 0,0 -12.211,-9.221 -16.697,-15.201 -4.486,-5.981 -4.984,-11.962 -4.984,-11.962 0,0 -11.463,9.719 -20.435,10.467 -8.97,0.747 -12.21,3.239 -12.21,3.239 z"
   id="path689"
   inkscape:connector-curvature="0" />
			<path
   style="fill:#ffffff;stroke:#263238;stroke-linecap:round;stroke-linejoin:round;stroke-miterlimit:10"
   d="m 408.591,199.594 c 0,0 6.23,-4.984 8.224,0.249 1.994,5.233 -2.243,9.968 -6.23,10.965 -3.987,0.997 -6.729,0.997 -6.729,0.997 z"
   id="path691"
   inkscape:connector-curvature="0" />
			<path
   style="fill:#ffffff;stroke:#263238;stroke-linecap:round;stroke-linejoin:round;stroke-miterlimit:10"
   d="m 356.009,181.901 c 0,0 -1.744,-4.236 -4.735,-0.498 -2.99,3.738 2.086,14.945 2.086,14.945 z"
   id="path693"
   inkscape:connector-curvature="0" />
			<path
   style="fill:none;stroke:#263238;stroke-linecap:round;stroke-linejoin:round;stroke-miterlimit:10"
   d="m 376.394,193.207 c 0,0 -1.157,2.749 -1.736,3.327 -0.579,0.579 -4.051,-1.736 -4.195,1.302 -0.145,3.038 4.195,6.076 5.497,5.642"
   id="path695"
   inkscape:connector-curvature="0" />
			<path
   style="fill:none;stroke:#263238;stroke-linecap:round;stroke-linejoin:round;stroke-miterlimit:10"
   d="m 365.977,203.334 c 0,0 7.378,9.693 20.109,5.353"
   id="path697"
   inkscape:connector-curvature="0" />
			<path
   style="fill:none;stroke:#263238;stroke-linecap:round;stroke-linejoin:round;stroke-miterlimit:10"
   d="m 364.82,174.11 c 0,0 6.221,-2.749 10.995,1.157"
   id="path699"
   inkscape:connector-curvature="0" />
			<path
   style="fill:none;stroke:#263238;stroke-linecap:round;stroke-linejoin:round;stroke-miterlimit:10"
   d="m 394.044,182.935 c 0,0 6.944,-2.17 10.561,5.353"
   id="path701"
   inkscape:connector-curvature="0" />
			<path
   style="fill:#263238"
   d="m 371.601,185.585 c -0.321,1.072 -1.109,1.782 -1.759,1.587 -0.651,-0.195 -0.918,-1.222 -0.597,-2.293 0.321,-1.071 1.109,-1.782 1.759,-1.587 0.65,0.195 0.918,1.221 0.597,2.293 z"
   id="path703"
   inkscape:connector-curvature="0" />
			<path
   style="fill:#263238"
   d="m 396.772,193.288 c -0.321,1.072 -1.109,1.782 -1.759,1.587 -0.651,-0.195 -0.918,-1.222 -0.597,-2.293 0.321,-1.072 1.109,-1.782 1.759,-1.587 0.651,0.195 0.918,1.222 0.597,2.293 z"
   id="path705"
   inkscape:connector-curvature="0" />
			
				<circle
   transform="matrix(0.9884,-0.152,0.152,0.9884,-23.5204,58.1678)"
   style="fill:none;stroke:#263238;stroke-linecap:round;stroke-linejoin:round;stroke-miterlimit:10"
   cx="368.72601"
   cy="182.935"
   id="ellipse707"
   r="11.574" />
			
				<circle
   transform="matrix(0.3854,-0.9228,0.9228,0.3854,66.6556,483.5961)"
   style="fill:none;stroke:#263238;stroke-linecap:round;stroke-linejoin:round;stroke-miterlimit:10"
   cx="396.358"
   cy="191.75999"
   id="ellipse709"
   r="11.574" />
			<path
   style="fill:none;stroke:#263238;stroke-linecap:round;stroke-linejoin:round;stroke-miterlimit:10"
   d="m 379.866,186.986 c 0,0 3.327,-1.302 5.208,2.025"
   id="path711"
   inkscape:connector-curvature="0" />
			
				<line
   style="fill:none;stroke:#263238;stroke-linecap:round;stroke-linejoin:round;stroke-miterlimit:10"
   x1="407.20901"
   y1="196.679"
   x2="410.24701"
   y2="198.41499"
   id="line713" />
		</g>
		<g
   id="g725">
			<path
   style="fill:#92e3a9;stroke:#263238;stroke-linecap:round;stroke-linejoin:round;stroke-miterlimit:10"
   d="m 397.752,266.829 c 0,0 1.13,27.124 4.973,32.775 3.843,5.651 27.803,20.569 27.803,20.569 l -20.569,25.09 c 0,0 -8.137,-2.938 -16.501,-9.72 -8.363,-6.781 -12.658,-5.877 -12.658,-5.877 0,0 -5.877,0.904 -7.007,2.712 -1.13,1.808 -4.295,6.103 -3.843,7.459 0.452,1.356 2.938,1.582 3.843,0.226 0.904,-1.356 2.712,-4.069 2.712,-4.069 l 5.651,-0.678 1.808,1.356 c 0,0 -9.72,5.651 -10.398,7.233 -0.678,1.582 -4.747,7.233 -3.391,7.911 1.356,0.678 2.486,0.226 3.843,-1.582 1.356,-1.808 4.295,-4.295 4.295,-4.295 l 7.233,-2.938 c 0,0 -4.069,5.425 -4.747,6.329 -0.678,0.904 -3.164,7.911 -3.164,8.589 0,0.678 2.486,1.808 3.843,-0.904 1.356,-2.713 2.486,-5.425 2.486,-5.425 l 8.363,-4.747 c 0,0 -4.521,6.103 -5.651,7.685 -1.13,1.582 -1.808,4.295 -0.452,4.521 1.356,0.226 4.747,-3.843 4.747,-3.843 l 4.521,-3.843 c 0,0 7.459,5.199 11.302,5.425 3.843,0.226 8.363,-2.034 8.363,-2.034 0,0 38.878,-26.22 40.687,-29.159 1.808,-2.939 3.391,-4.069 2.034,-9.946 -1.356,-5.877 -11.302,-13.336 -23.282,-35.488 -11.98,-22.152 -17.179,-30.967 -19.439,-33.228 -2.26,-2.26 -8.589,-3.165 -8.589,-3.165"
   id="path717"
   inkscape:connector-curvature="0" />
			<path
   style="fill:none;stroke:#263238;stroke-linecap:round;stroke-linejoin:round;stroke-miterlimit:10"
   d="m 430.527,320.174 c 0,0 6.781,-6.781 15.37,-5.877"
   id="path719"
   inkscape:connector-curvature="0" />
			<path
   style="fill:none;stroke:#263238;stroke-linecap:round;stroke-linejoin:round;stroke-miterlimit:10"
   d="m 433.466,317.914 c 0,0 5.199,-6.555 9.493,-7.911"
   id="path721"
   inkscape:connector-curvature="0" />
			<path
   style="fill:#ffffff;stroke:#263238;stroke-linecap:round;stroke-linejoin:round;stroke-miterlimit:10"
   d="m 424.542,327.475 -14.584,17.789 c 0,0 -8.137,-2.938 -16.501,-9.72 -8.363,-6.781 -12.658,-5.877 -12.658,-5.877 0,0 -5.877,0.904 -7.007,2.712 -1.13,1.808 -4.295,6.103 -3.843,7.459 0.452,1.356 2.939,1.582 3.843,0.226 0.904,-1.356 2.712,-4.069 2.712,-4.069 l 5.651,-0.678 1.808,1.356 c 0,0 -9.719,5.651 -10.398,7.233 -0.678,1.582 -4.747,7.233 -3.391,7.911 1.356,0.678 2.486,0.226 3.843,-1.582 1.356,-1.808 4.295,-4.295 4.295,-4.295 l 7.233,-2.938 c 0,0 -4.069,5.425 -4.747,6.329 -0.678,0.904 -3.164,7.911 -3.164,8.589 0,0.678 2.486,1.808 3.843,-0.904 1.356,-2.713 2.486,-5.425 2.486,-5.425 l 8.363,-4.747 c 0,0 -4.521,6.103 -5.651,7.685 -1.13,1.582 -1.808,4.295 -0.452,4.521 1.356,0.226 4.747,-3.843 4.747,-3.843 l 4.521,-3.843 c 0,0 7.459,5.199 11.302,5.425 3.843,0.226 8.363,-2.034 8.363,-2.034 0,0 14.516,-9.79 26.221,-18.077 z"
   id="path723"
   inkscape:connector-curvature="0" />
		</g>
		<g
   id="g749">
			<g
   id="g735">
				<polygon
   style="fill:#ffffff;stroke:#263238;stroke-linecap:round;stroke-linejoin:round;stroke-miterlimit:10"
   points="282.461,274.807 293.104,249.166 305.682,276.016 "
   id="polygon727" />
				<polygon
   style="fill:#ffffff;stroke:#263238;stroke-linecap:round;stroke-linejoin:round;stroke-miterlimit:10"
   points="284.525,276.366 282.461,274.807 293.548,250.156 295.983,251.158 306.009,272.069 "
   id="polygon729" />
				<path
   style="fill:#ffffff;stroke:#263238;stroke-linecap:round;stroke-linejoin:round;stroke-miterlimit:10"
   d="m 282.461,274.807 c 0,0 8.223,-3.883 11.517,-4.886 3.294,-1.003 30.937,-3.867 30.937,-3.867 l -6.875,7.734 -27.356,7.448 z"
   id="path731"
   inkscape:connector-curvature="0" />
				<polygon
   style="fill:#263238"
   points="326.727,265.615 348.739,317.138 305.682,327.297 282.461,274.807 "
   id="polygon733" />
			</g>
			<g
   id="g747">
				<path
   style="fill:#ffffff;stroke:#263238;stroke-linecap:round;stroke-linejoin:round;stroke-miterlimit:10"
   d="m 287.533,286.965 c 0,0 -2.721,2.148 -2.292,5.156 0.43,3.008 4.01,4.01 4.726,3.437 0.716,-0.573 1.003,-1.432 1.003,-1.432 z"
   id="path737"
   inkscape:connector-curvature="0" />
				<path
   style="fill:#ffffff;stroke:#263238;stroke-linecap:round;stroke-linejoin:round;stroke-miterlimit:10"
   d="m 292.018,297.252 c 0,0 -1.917,2.788 -1.394,5.402 0.523,2.614 3.572,5.925 6.012,6.012 2.44,0.087 3.747,-0.784 2.701,-2.265 -1.046,-1.481 -4.792,-4.269 -4.792,-4.269 z"
   id="path739"
   inkscape:connector-curvature="0" />
				<path
   style="fill:#ffffff;stroke:#263238;stroke-linecap:round;stroke-linejoin:round;stroke-miterlimit:10"
   d="m 293.064,307.446 c 0,0 0.174,4.879 0.958,5.925 0.784,1.046 7.929,2.527 8.539,1.568 0.61,-0.958 -1.307,-2.788 -2.178,-3.398 -0.871,-0.61 -2.353,-1.394 -2.353,-1.394 l -0.436,-1.046 c 0,10e-4 -3.833,-1.307 -4.53,-1.655 z"
   id="path741"
   inkscape:connector-curvature="0" />
				<path
   style="fill:#ffffff;stroke:#263238;stroke-linecap:round;stroke-linejoin:round;stroke-miterlimit:10"
   d="m 299.686,318.86 c 0,0 1.394,2.178 2.353,2.353 0.958,0.174 3.311,-0.436 3.921,-1.568 0.61,-1.133 -1.568,-1.394 -1.568,-1.394 0,0 -2.354,0.174 -4.706,0.609 z"
   id="path743"
   inkscape:connector-curvature="0" />
				<path
   style="fill:#ffffff;stroke:#263238;stroke-linecap:round;stroke-linejoin:round;stroke-miterlimit:10"
   d="m 296.113,314.591 c 0,0 1.22,3.398 2.353,4.008 1.133,0.61 6.012,0.436 6.273,-0.871 0.261,-1.307 -3.572,-2.353 -3.572,-2.353 0,0 -3.921,-0.697 -5.054,-0.784 z"
   id="path745"
   inkscape:connector-curvature="0" />
			</g>
		</g>
	</g>
</g>
</svg>