<?xml version="1.0" encoding="UTF-8" standalone="no"?>
<!-- Generator: Adobe Illustrator 27.5.0, SVG Export Plug-In . SVG Version: 6.00 Build 0)  -->

<svg
   xmlns:dc="http://purl.org/dc/elements/1.1/"
   xmlns:cc="http://creativecommons.org/ns#"
   xmlns:rdf="http://www.w3.org/1999/02/22-rdf-syntax-ns#"
   xmlns:svg="http://www.w3.org/2000/svg"
   xmlns="http://www.w3.org/2000/svg"
   xmlns:sodipodi="http://sodipodi.sourceforge.net/DTD/sodipodi-0.dtd"
   xmlns:inkscape="http://www.inkscape.org/namespaces/inkscape"
   version="1.1"
   x="0px"
   y="0px"
   viewBox="0 0 500 500"
   style="enable-background:new 0 0 500 500;"
   xml:space="preserve"
   id="svg1066"
   sodipodi:docname="user-2.svg"
   inkscape:version="0.92.3 (2405546, 2018-03-11)"><metadata
   id="metadata1072"><rdf:RDF><cc:Work
       rdf:about=""><dc:format>image/svg+xml</dc:format><dc:type
         rdf:resource="http://purl.org/dc/dcmitype/StillImage" /></cc:Work></rdf:RDF></metadata><defs
   id="defs1070">
	
	
	
	
	
	
</defs><sodipodi:namedview
   pagecolor="#ffffff"
   bordercolor="#666666"
   borderopacity="1"
   objecttolerance="10"
   gridtolerance="10"
   guidetolerance="10"
   inkscape:pageopacity="0"
   inkscape:pageshadow="2"
   inkscape:window-width="1280"
   inkscape:window-height="739"
   id="namedview1068"
   showgrid="false"
   inkscape:zoom="0.6675088"
   inkscape:cx="250"
   inkscape:cy="359.16432"
   inkscape:window-x="-9"
   inkscape:window-y="-9"
   inkscape:window-maximized="1"
   inkscape:current-layer="g675" />

<g
   id="g725"
   transform="matrix(2.8498006,0,0,2.5954524,-461.4406,-125.43065)">
		
			<circle
   r="60.618"
   id="ellipse519"
   cy="125.15"
   cx="250.26401"
   style="fill:#2aff80"
   transform="matrix(0.252,-0.9677,0.9677,0.252,66.0782,335.7919)" />
		<g
   id="g723">
			<g
   id="g639">
				<path
   inkscape:connector-curvature="0"
   id="path521"
   d="m 287.284,128.128 c 2.3,-1.947 2.1,-5.245 0.905,-8.012 -1.194,-2.766 -4.307,-4.57 -7.301,-4.231 2.402,-1.686 2.078,-5.138 0.716,-7.737 -1.362,-2.6 -4.77,-3.911 -7.524,-2.896 2.561,-2.042 2.646,-5.417 0.984,-8.24 -0.695,-1.18 -1.776,-2.088 -3.017,-2.66 -0.702,-2.711 -2.265,-5.201 -4.532,-6.853 -1.821,-1.327 -4.018,-2.05 -6.26,-2.203 -2.609,-1.764 -5.935,-2.792 -8.715,-1.431 -7.885,-2.832 -17.366,-0.489 -23.024,5.69 -0.949,1.036 -1.822,2.227 -2.053,3.613 -0.231,1.386 0.361,2.992 1.655,3.539 -3.517,-1.712 -6.633,-0.374 -9.327,2.462 -2.695,2.835 -3.289,7.454 -1.4,10.879 -3.02,0.1 -5.455,3.649 -6.168,6.586 -0.714,2.937 0.737,6.263 3.375,7.738 -3.724,0.381 -5.103,5.501 -3.98,9.073 0.735,2.338 3.015,3.944 5.419,4.269 -2.065,1.025 -3.905,2.992 -4.748,4.926 -1.335,3.063 -0.257,6.989 2.456,8.941 2.712,1.951 6.778,1.726 9.257,-0.514 -0.847,2.345 0.907,5.529 3.126,6.665 2.22,1.136 4.944,0.89 7.247,-0.067 2.303,-0.957 4.273,-2.552 6.207,-4.125 -0.8,0.477 0.39,1.684 0.746,2.545 0.356,0.86 1.132,1.475 1.94,1.939 4.49,2.58 10.871,1.057 13.712,-3.272 -0.146,3.092 2.232,5.99 5.326,6.079 3.094,0.089 5.978,-2.686 6.009,-5.781 1.992,2.998 5.654,3.768 8.495,1.558 2.84,-2.21 3.25,-6.915 0.834,-9.583 2.619,2.337 7.198,3.755 9.361,0.992 2.164,-2.764 1.461,-7.304 -1.436,-9.285 3.231,0.689 6.977,-0.577 7.395,-3.854 0.419,-3.28 -2.379,-6.604 -5.68,-6.75 z"
   style="fill:#2e2e2e" />
				<g
   id="g527">
					
						<path
   inkscape:connector-curvature="0"
   id="path523"
   d="m 261.513,165.662 c 0.217,6.616 -4.971,12.103 -11.443,12.103 -6.336,0 -11.443,-5.26 -11.443,-11.714 0,-0.126 0,-0.262 0.009,-0.389 l 1.274,-17.472 0.163,-2.251 0.795,-10.855 h 18.403 l 0.823,11.262 0.181,2.459 z"
   style="fill:#f5f5ff;stroke:#2e2e2e;stroke-width:0.5;stroke-linecap:round;stroke-linejoin:round;stroke-miterlimit:10" />
					<path
   inkscape:connector-curvature="0"
   id="path525"
   d="m 260.966,156.985 c -5.8,0.71 -12.34,-2.08 -16.77,-7.74 -1.8,-2.29 -3.05,-4.81 -3.77,-7.36 l 0.52,-7.05 h 18.4 l 0.82,11.26 0.19,2.46 z"
   style="fill:#2e2e2e" />
				</g>
				<g
   id="g553">
					<g
   id="g539">
						<g
   id="g535">
							<g
   id="g533">
								<g
   id="g531">
									
										<path
   inkscape:connector-curvature="0"
   id="path529"
   d="m 267.099,118.571 c -2.312,3.713 -2.088,8.111 0.499,9.824 2.587,1.713 6.559,0.091 8.871,-3.622 2.312,-3.713 2.088,-8.111 -0.499,-9.823 -2.588,-1.714 -6.559,-0.092 -8.871,3.621 z"
   style="fill:#f5f5ff;stroke:#2e2e2e;stroke-width:0.5;stroke-linecap:round;stroke-linejoin:round;stroke-miterlimit:10" />
								</g>
							</g>
						</g>
						
							<path
   inkscape:connector-curvature="0"
   id="path537"
   d="m 274.023,116.731 c 1.121,0.438 1.972,1.502 2.154,2.691 0.182,1.189 -0.314,2.459 -1.253,3.211"
   style="fill:none;stroke:#2e2e2e;stroke-width:0.5;stroke-linecap:round;stroke-linejoin:round;stroke-miterlimit:10" />
					</g>
					<g
   id="g551">
						<g
   id="g547">
							<g
   id="g545">
								<g
   id="g543">
									
										<path
   inkscape:connector-curvature="0"
   id="path541"
   d="m 232.892,118.571 c 2.312,3.713 2.088,8.111 -0.499,9.824 -2.587,1.713 -6.559,0.091 -8.871,-3.622 -2.312,-3.713 -2.088,-8.111 0.499,-9.823 2.587,-1.714 6.559,-0.092 8.871,3.621 z"
   style="fill:#f5f5ff;stroke:#2e2e2e;stroke-width:0.5;stroke-linecap:round;stroke-linejoin:round;stroke-miterlimit:10" />
								</g>
							</g>
						</g>
						
							<path
   inkscape:connector-curvature="0"
   id="path549"
   d="m 225.968,116.731 c -1.121,0.438 -1.972,1.502 -2.154,2.691 -0.182,1.189 0.314,2.459 1.253,3.211"
   style="fill:none;stroke:#2e2e2e;stroke-width:0.5;stroke-linecap:round;stroke-linejoin:round;stroke-miterlimit:10" />
					</g>
				</g>
				
					<path
   inkscape:connector-curvature="0"
   id="path555"
   d="m 273.082,111.627 c 0,0.342 0,0.672 -0.025,0.984 -0.038,0.972 -0.126,1.944 -0.265,2.893 l -0.145,1.361 -0.07,0.737 -0.107,1.066 c -0.063,0.648 -0.107,1.285 -0.151,1.921 -0.025,0.407 -0.051,0.807 -0.076,1.208 -0.101,1.614 -0.196,3.205 -0.435,4.796 0,0.024 -0.013,0.053 -0.013,0.077 -0.051,0.3 -0.101,0.607 -0.164,0.907 -0.063,0.33 -0.126,0.654 -0.221,0.972 -0.114,0.477 -0.253,0.96 -0.417,1.449 -0.051,0.177 -0.114,0.342 -0.183,0.519 -0.126,0.354 -0.278,0.707 -0.429,1.072 -0.423,0.931 -0.922,1.844 -1.496,2.752 -2.392,3.783 -6.052,7.241 -9.725,9.539 -0.013,0.024 -0.038,0.035 -0.051,0.035 -0.448,0.289 -0.896,0.554 -1.338,0.795 -4.474,2.475 -9.769,2.61 -14.407,0.477 -0.959,-0.442 -1.887,-0.943 -2.783,-1.538 -0.013,0 -0.025,0 -0.038,-0.023 -3.553,-2.298 -6.601,-5.627 -8.898,-9.286 -0.164,-0.253 -0.316,-0.507 -0.473,-0.772 -0.076,-0.135 -0.151,-0.277 -0.227,-0.412 -0.126,-0.23 -0.252,-0.471 -0.385,-0.707 -0.366,-0.63 -0.688,-1.29 -0.978,-1.933 -0.076,-0.177 -0.164,-0.354 -0.234,-0.542 -1.079,-2.575 -1.464,-5.45 -1.716,-8.278 -0.044,-0.442 -0.082,-0.89 -0.12,-1.332 -0.044,-0.495 -0.089,-0.99 -0.126,-1.479 l -0.126,-1.326 c -0.032,-0.147 -0.057,-0.289 -0.082,-0.43 -0.038,-0.159 -0.063,-0.318 -0.082,-0.477 -0.114,-0.607 -0.202,-1.214 -0.271,-1.844 -0.113,-1.019 -0.177,-2.092 -0.177,-3.182 0,-0.088 0,-0.189 0.013,-0.277 0,-0.684 0.031,-1.355 0.088,-2.021 0.05,-0.566 0.126,-1.125 0.221,-1.673 0.53,-3.358 1.716,-6.481 3.433,-9.221 0.429,-0.689 0.889,-1.349 1.382,-1.986 4.903,-6.342 13.283,-10.032 21.85,-8.652 6.853,1.104 12.416,5.326 15.761,10.755 0.101,0.141 0.183,0.289 0.284,0.448 1.502,2.587 2.575,5.485 3.073,8.59 0,0.023 0.013,0.041 0.013,0.065 0.088,0.548 0.158,1.108 0.208,1.673 0.063,0.666 0.095,1.337 0.095,2.021 0.013,0.091 0.013,0.191 0.013,0.279 z"
   style="fill:#f5f5ff;stroke:#2e2e2e;stroke-width:0.5086;stroke-linecap:round;stroke-linejoin:round;stroke-miterlimit:10" />
				<g
   id="g561">
					<path
   inkscape:connector-curvature="0"
   id="path557"
   d="m 252.752,84.478 c 2.458,2.254 3.061,6.132 1.393,8.969 -1.668,2.836 -5.452,4.371 -8.753,3.55 1.023,1.533 0.219,3.884 -0.882,5.367 -1.102,1.483 -3.183,2.237 -5.04,1.826 1.572,4.896 -1.635,10.635 -6.288,13.194 1.258,2.427 0.585,6.299 -0.742,8.693 -1.327,2.394 -3.905,4.119 -6.718,4.495 1.86,2.093 2.519,5.436 1.536,8.014 -0.982,2.578 -3.484,4.573 -6.319,5.041 -2.314,0.381 -5.846,-0.212 -6.854,-2.233 -1.008,-2.021 -0.362,-4.668 1.478,-6.059 -1.065,-2.17 -1.723,-4.201 -1.857,-6.594 -0.167,-2.967 0.449,-6.034 2.152,-8.523 1.703,-2.489 4.576,-4.324 7.69,-4.476 -2.686,-3.812 -3.349,-8.345 -1.392,-12.541 1.958,-4.196 6.276,-7.309 11.046,-7.961 -0.048,-2.625 0.967,-5.155 3.099,-6.819 2.131,-1.663 5.076,-2.336 7.767,-1.774 0.692,-1.574 3.166,-2.501 4.933,-2.776 1.767,-0.274 3.662,0.375 4.842,1.659"
   style="fill:#2e2e2e" />
					<path
   inkscape:connector-curvature="0"
   id="path559"
   d="m 254.814,85.655 c -1.803,3.155 -1.701,7.307 0.257,10.369 1.958,3.062 5.683,4.898 9.304,4.585 -1.685,1.877 -1.394,4.985 0.175,6.96 1.569,1.976 4.617,2.588 6.827,1.371 -1.13,0.949 -2.285,2.382 -2.391,3.854 -0.107,1.472 0.737,3.054 2.144,3.501 1.407,0.447 3.174,-0.612 3.186,-2.088 0.032,-4.153 2.577,-8.057 1.178,-11.968 -1.398,-3.911 -4.544,-7.16 -8.407,-8.684 -1.377,-5.346 -6.753,-7.974 -12.273,-7.9 z"
   style="fill:#2e2e2e" />
				</g>
				<g
   id="g637">
					<g
   id="g575">
						<g
   id="g567">
							
								<circle
   id="circle563"
   r="8.1529999"
   cy="120.746"
   cx="239.004"
   style="fill:none;stroke:#2e2e2e;stroke-width:0.5;stroke-linecap:round;stroke-linejoin:round;stroke-miterlimit:10" />
							
								<circle
   id="circle565"
   r="8.1529999"
   cy="120.746"
   cx="261.44901"
   style="fill:none;stroke:#2e2e2e;stroke-width:0.5;stroke-linecap:round;stroke-linejoin:round;stroke-miterlimit:10" />
						</g>
						
							<path
   inkscape:connector-curvature="0"
   id="path569"
   d="m 247.161,119.785 c 0.901,-0.525 1.948,-0.825 3.065,-0.825 1.133,0 2.194,0.309 3.103,0.847"
   style="fill:none;stroke:#2e2e2e;stroke-width:0.5;stroke-linecap:round;stroke-linejoin:round;stroke-miterlimit:10" />
						
							<line
   id="line571"
   y2="114.606"
   x2="226.24001"
   y1="120.746"
   x1="230.851"
   style="fill:none;stroke:#2e2e2e;stroke-width:0.5;stroke-linecap:round;stroke-linejoin:round;stroke-miterlimit:10" />
						
							<line
   id="line573"
   y2="114.606"
   x2="274.06299"
   y1="120.746"
   x1="269.45099"
   style="fill:none;stroke:#2e2e2e;stroke-width:0.5;stroke-linecap:round;stroke-linejoin:round;stroke-miterlimit:10" />
					</g>
					<g
   id="g585">
						<g
   id="g579">
							<path
   inkscape:connector-curvature="0"
   id="path577"
   d="m 254.069,112.475 c 0.472,-1.148 1.409,-1.993 2.448,-2.577 1.051,-0.578 2.242,-0.893 3.447,-0.933 1.205,-0.041 2.411,0.2 3.495,0.704 1.074,0.511 2.062,1.284 2.625,2.391 l -3.212,-0.087 c -0.973,-0.018 -1.898,-0.014 -2.814,0.013 -0.916,0.029 -1.837,0.081 -2.804,0.163 -0.974,0.078 -1.966,0.189 -3.185,0.326 z"
   style="fill:#2e2e2e" />
						</g>
						<g
   id="g583">
							<path
   inkscape:connector-curvature="0"
   id="path581"
   d="m 246.234,112.475 c -1.22,-0.137 -2.211,-0.248 -3.186,-0.326 -0.966,-0.082 -1.887,-0.135 -2.803,-0.163 -0.917,-0.026 -1.841,-0.031 -2.814,-0.013 l -3.212,0.087 c 0.563,-1.107 1.551,-1.88 2.625,-2.391 1.084,-0.505 2.29,-0.746 3.495,-0.704 1.205,0.04 2.396,0.355 3.447,0.933 1.039,0.584 1.976,1.429 2.448,2.577 z"
   style="fill:#2e2e2e" />
						</g>
					</g>
					<g
   id="g627">
						<g
   id="g605">
							<g
   id="g603">
								<g
   id="g601">
									<g
   id="g599">
										<g
   id="g597">
											<g
   id="g595">
												<g
   id="g589">
													<path
   inkscape:connector-curvature="0"
   id="path587"
   d="m 254.63,120.573 c 0.217,-0.482 0.459,-0.949 0.688,-1.424 l 0.019,-0.029 c 0.571,-0.858 1.287,-1.687 2.244,-2.229 0.939,-0.558 2.069,-0.84 3.165,-0.772 1.089,0.054 2.162,0.381 3.087,0.944 0.462,0.278 0.883,0.611 1.272,0.971 0.387,0.353 0.735,0.783 0.878,1.305 l 0.002,0.009 c 0.035,0.128 -0.04,0.259 -0.168,0.294 -0.055,0.015 -0.111,0.009 -0.159,-0.012 -0.515,-0.226 -0.85,-0.524 -1.221,-0.817 -0.368,-0.287 -0.761,-0.536 -1.169,-0.745 -0.807,-0.424 -1.695,-0.669 -2.593,-0.74 -0.893,-0.072 -1.785,0.088 -2.596,0.482 -0.806,0.402 -1.534,1.014 -2.158,1.742 l 0.019,-0.028 c -0.313,0.424 -0.612,0.857 -0.937,1.275 -0.074,0.096 -0.212,0.113 -0.308,0.039 -0.081,-0.065 -0.106,-0.175 -0.065,-0.265 z"
   style="fill:#2e2e2e" />
												</g>
												<path
   inkscape:connector-curvature="0"
   id="path591"
   d="m 258.315,118.721 c 0.073,-1.013 0.953,-1.775 1.966,-1.702 1.013,0.073 1.775,0.953 1.702,1.966 -0.073,1.013 -0.953,1.775 -1.966,1.702 -1.013,-0.073 -1.775,-0.953 -1.702,-1.966 z"
   style="fill:#2e2e2e" />
												
													<path
   inkscape:connector-curvature="0"
   id="path593"
   d="m 263.86,120.399 c 0.676,-0.151 1.317,-0.458 1.858,-0.891"
   style="fill:none;stroke:#2e2e2e;stroke-width:0.5;stroke-linecap:round;stroke-linejoin:round;stroke-miterlimit:10" />
											</g>
										</g>
									</g>
								</g>
							</g>
						</g>
						<g
   id="g625">
							<g
   id="g623">
								<g
   id="g621">
									<g
   id="g619">
										<g
   id="g617">
											<g
   id="g615">
												<g
   id="g609">
													<path
   inkscape:connector-curvature="0"
   id="path607"
   d="m 245.299,120.798 c -0.324,-0.418 -0.624,-0.85 -0.937,-1.275 l 0.019,0.028 c -0.624,-0.727 -1.352,-1.339 -2.158,-1.742 -0.811,-0.394 -1.702,-0.555 -2.596,-0.482 -0.898,0.072 -1.786,0.316 -2.593,0.74 -0.407,0.209 -0.8,0.458 -1.169,0.745 -0.372,0.293 -0.707,0.592 -1.221,0.817 -0.121,0.053 -0.262,-0.002 -0.315,-0.123 -0.023,-0.052 -0.026,-0.108 -0.012,-0.159 l 0.003,-0.009 c 0.143,-0.522 0.49,-0.952 0.878,-1.305 0.389,-0.359 0.81,-0.692 1.272,-0.971 0.924,-0.563 1.998,-0.889 3.087,-0.943 1.096,-0.068 2.226,0.214 3.165,0.772 0.957,0.542 1.673,1.371 2.244,2.229 l 0.019,0.029 c 0.229,0.475 0.471,0.942 0.688,1.424 0.05,0.111 0.001,0.24 -0.11,0.29 -0.095,0.043 -0.203,0.013 -0.264,-0.065 z"
   style="fill:#2e2e2e" />
												</g>
												<path
   inkscape:connector-curvature="0"
   id="path611"
   d="m 241.988,118.721 c -0.073,-1.013 -0.953,-1.775 -1.966,-1.702 -1.013,0.073 -1.775,0.953 -1.702,1.966 0.073,1.013 0.953,1.775 1.966,1.702 1.013,-0.073 1.775,-0.953 1.702,-1.966 z"
   style="fill:#2e2e2e" />
												
													<path
   inkscape:connector-curvature="0"
   id="path613"
   d="m 236.443,120.399 c -0.676,-0.151 -1.317,-0.458 -1.858,-0.891"
   style="fill:none;stroke:#2e2e2e;stroke-width:0.5;stroke-linecap:round;stroke-linejoin:round;stroke-miterlimit:10" />
											</g>
										</g>
									</g>
								</g>
							</g>
						</g>
					</g>
					
						<path
   inkscape:connector-curvature="0"
   id="path629"
   d="m 246.965,128.801 c 0.765,-0.984 1.964,-1.587 3.179,-1.597 1.215,-0.01 2.42,0.572 3.194,1.544"
   style="fill:none;stroke:#2e2e2e;stroke-width:0.46380001;stroke-linecap:round;stroke-linejoin:round;stroke-miterlimit:10" />
					<g
   id="g635">
						<path
   inkscape:connector-curvature="0"
   id="path631"
   d="m 250.345,135.765 c 0.819,-0.005 1.638,-0.057 2.451,-0.156 0.249,-0.03 2.683,-0.365 2.666,-0.518 0,0 -1.253,-0.963 -1.688,-1.333 l -0.193,-0.173 c -0.466,-0.417 -0.948,-0.849 -1.555,-1.066 -0.593,-0.204 -1.387,-0.114 -1.845,0.406 -0.445,-0.533 -1.235,-0.644 -1.837,-0.455 -0.609,0.2 -1.102,0.619 -1.58,1.023 l -0.195,0.165 c -0.446,0.357 -1.726,1.289 -1.726,1.289 -0.018,0.199 2.098,0.565 2.341,0.6 0.892,0.129 1.792,0.201 2.694,0.215 0.154,0.003 0.31,0.004 0.467,0.003 z"
   style="fill:#2e2e2e" />
						
							<path
   inkscape:connector-curvature="0"
   id="path633"
   d="m 247.212,137.354 c 1.845,1.094 4.272,1.129 6.148,0.088"
   style="fill:#f5f5ff;stroke:#2e2e2e;stroke-width:0.5086;stroke-linecap:round;stroke-linejoin:round;stroke-miterlimit:10" />
					</g>
				</g>
			</g>
			<g
   id="g677">
				<g
   id="g655">
					<path
   inkscape:connector-curvature="0"
   id="path641"
   d="m 199.252,221.011 c 8.121,3.665 15.536,4.794 16.56,2.523 1.025,-2.271 -4.728,-7.083 -12.849,-10.748 -8.121,-3.665 -15.536,-4.794 -16.561,-2.523 -1.024,2.272 4.728,7.084 12.85,10.748 z"
   style="fill:#2e2e2e" />
					
						<path
   inkscape:connector-curvature="0"
   id="path643"
   d="m 210.143,226.724 8.24,-19.59 1.36,-3.25 2.25,-5.35 1.49,-3.54 2.53,-6.04 2.18,-5.18 c 3.02,-7.19 0.15,-15.19 -6.23,-17.43 -1.11,-0.39 -2.26,-0.58 -3.39,-0.58 -1.01,0 -2.01,0.15 -2.99,0.43 -3.95,1.11 -7.47,4.4 -9.08,8.99 l -4.76,13.6 -2.36,6.74 -10.82,30.91 c -0.03,0.1 -0.07,0.19 -0.1,0.29"
   style="fill:#f5f5ff;stroke:#2e2e2e;stroke-width:0.5;stroke-linecap:round;stroke-linejoin:round;stroke-miterlimit:10" />
					<path
   inkscape:connector-curvature="0"
   id="path645"
   d="m 186.496,210.009 c 1.501,-1.895 8.615,-0.702 16.381,2.794 8.123,3.668 13.883,8.48 12.849,10.757 -0.025,0.049 -0.049,0.086 -0.086,0.135 l 0.086,0.037 17.555,-41.794 c 3.52,-8.258 -0.283,-17.674 -8.283,-20.467 -1.514,-0.529 -3.052,-0.788 -4.591,-0.788 -5.477,0 -10.732,3.249 -13.428,8.517 z"
   style="fill:#00222b" />
					<g
   id="g653">
						<circle
   id="circle647"
   r="1.015"
   cy="194.509"
   cx="200.097"
   style="fill:#f5f5ff" />
						<path
   inkscape:connector-curvature="0"
   id="path649"
   d="m 201.997,206.444 c 0,0.795 0.644,1.439 1.439,1.439 0.795,0 1.439,-0.644 1.439,-1.439 0,-0.795 -0.644,-1.439 -1.439,-1.439 -0.795,0 -1.439,0.644 -1.439,1.439 z"
   style="fill:#f5f5ff" />
						<path
   inkscape:connector-curvature="0"
   id="path651"
   d="m 207.745,187.61 c 0,0.673 -0.545,1.218 -1.217,1.218 -0.672,0 -1.217,-0.545 -1.217,-1.218 0,-0.672 0.545,-1.217 1.217,-1.217 0.672,0 1.217,0.545 1.217,1.217 z"
   style="fill:#f5f5ff" />
					</g>
				</g>
				<g
   id="g675">
					<path
   inkscape:connector-curvature="0"
   id="path657"
   d="m 301.277,221.011 c -8.121,3.665 -15.536,4.794 -16.561,2.523 -1.025,-2.271 4.728,-7.083 12.849,-10.748 8.121,-3.665 15.536,-4.794 16.561,-2.523 1.025,2.272 -4.728,7.084 -12.849,10.748 z"
   style="fill:#2e2e2e" />
					
						<path
   inkscape:connector-curvature="0"
   id="path659"
   d="m 290.386,226.724 -8.24,-19.59 -1.36,-3.25 -2.25,-5.35 -1.49,-3.54 -2.53,-6.04 -2.18,-5.18 c -3.02,-7.19 -0.15,-15.19 6.23,-17.43 1.11,-0.39 2.26,-0.58 3.39,-0.58 1.01,0 2.01,0.15 2.99,0.43 3.95,1.11 7.47,4.4 9.08,8.99 l 4.76,13.6 2.36,6.74 10.82,30.91 c 0.03,0.1 0.07,0.19 0.1,0.29"
   style="fill:#f5f5ff;stroke:#2e2e2e;stroke-width:0.5;stroke-linecap:round;stroke-linejoin:round;stroke-miterlimit:10" />
					<path
   inkscape:connector-curvature="0"
   id="path661"
   d="m 314.032,210.009 c -1.501,-1.895 -8.615,-0.702 -16.381,2.794 -8.123,3.668 -13.883,8.48 -12.849,10.757 0.025,0.049 0.049,0.086 0.086,0.135 l -0.086,0.037 -17.555,-41.794 c -3.52,-8.258 0.283,-17.674 8.283,-20.467 1.514,-0.529 3.052,-0.788 4.591,-0.788 5.477,0 10.732,3.249 13.428,8.517 z"
   style="fill:#00222b" />
					<g
   id="g673">
						<path
   inkscape:connector-curvature="0"
   id="path663"
   d="m 289.677,171.69 c 0,0.55 -0.446,0.996 -0.996,0.996 -0.55,0 -0.996,-0.446 -0.996,-0.996 0,-0.55 0.446,-0.996 0.996,-0.996 0.55,-10e-4 0.996,0.445 0.996,0.996 z"
   style="fill:#f5f5ff" />
						<circle
   id="circle665"
   r="1.015"
   cy="194.509"
   cx="300.43201"
   style="fill:#f5f5ff" />
						<path
   inkscape:connector-curvature="0"
   id="path667"
   d="m 292.997,187.185 c 0,0.672 -0.545,1.217 -1.218,1.217 -0.672,0 -1.217,-0.545 -1.217,-1.217 0,-0.672 0.545,-1.217 1.217,-1.217 0.673,0 1.218,0.545 1.218,1.217 z"
   style="fill:#f5f5ff" />
						<path
   inkscape:connector-curvature="0"
   id="path669"
   d="m 298.531,206.444 c 0,0.795 -0.644,1.439 -1.439,1.439 -0.795,0 -1.439,-0.644 -1.439,-1.439 0,-0.795 0.644,-1.439 1.439,-1.439 0.795,0 1.439,0.644 1.439,1.439 z"
   style="fill:#f5f5ff" />
						<path
   inkscape:connector-curvature="0"
   id="path671"
   d="m 286.799,209.543 c 0,0.55 -0.446,0.996 -0.996,0.996 -0.55,0 -0.996,-0.446 -0.996,-0.996 0,-0.55 0.446,-0.996 0.996,-0.996 0.55,0 0.996,0.446 0.996,0.996 z"
   style="fill:#f5f5ff" />
					</g>
				</g>
			</g>
			<g
   id="g721">
				<g
   id="g695">
					<g
   id="g681"
   style="fill:#00222b">
						<path
   inkscape:connector-curvature="0"
   id="path679"
   d="m 286.976,179.004 -2.56,12.24 c 0.51,1.12 0.91,2.3 1.18,3.53 0.28,1.28 0.43,2.6 0.43,3.96 0,1.62 -0.21,3.2 -0.62,4.7 -0.34,1.3 -0.82,2.54 -1.43,3.7 -1,1.92 -2.32,3.65 -3.91,5.1 l -3.01,14.49 h -54.17 l -3.01,-14.9 c -1.09,-1.06 -2.05,-2.27 -2.85,-3.58 -0.95,-1.56 -1.68,-3.27 -2.13,-5.09 -0.35,-1.41 -0.54,-2.89 -0.54,-4.42 0,-1.55 0.2,-3.06 0.56,-4.5 0.23,-0.91 0.52,-1.79 0.87,-2.64 l -2.54,-12.59 c -1.09,-4.64 -0.88,-9.18 0.76,-12.6 1.35,-2.84 3.69,-4.9 7.09,-5.63 0.86,-0.18 1.8,-0.28 2.81,-0.28 h 53.74 c 1,0 1.92,0.1 2.76,0.28 3.22,0.7 5.27,2.69 6.37,5.42 1.41,3.45 1.31,8.08 0.2,12.81 z"
   style="fill:#00222b" />
					</g>
					<g
   id="g691">
						<g
   id="g685">
							<path
   inkscape:connector-curvature="0"
   id="path683"
   d="m 287.057,178.999 c -0.376,2.05 -0.723,4.107 -1.128,6.151 -0.394,2.047 -0.782,4.094 -1.206,6.135 l -0.015,-0.137 c 0.8,1.758 1.335,3.644 1.543,5.569 0.202,1.926 0.089,3.878 -0.307,5.769 -0.392,1.894 -1.135,3.703 -2.107,5.362 -0.975,1.662 -2.251,3.128 -3.684,4.387 1.373,-1.331 2.517,-2.873 3.435,-4.53 0.918,-1.66 1.548,-3.462 1.93,-5.308 0.743,-3.7 0.314,-7.617 -1.215,-11.066 -0.02,-0.044 -0.024,-0.093 -0.015,-0.137 0.427,-2.04 0.889,-4.072 1.347,-6.106 0.443,-2.035 0.948,-4.059 1.422,-6.089 z"
   style="fill:#ffffff" />
						</g>
						<g
   id="g689">
							<path
   inkscape:connector-curvature="0"
   id="path687"
   d="m 219.959,211.827 c -1.33,-1.25 -2.509,-2.684 -3.414,-4.289 -0.899,-1.604 -1.58,-3.343 -1.953,-5.154 -0.366,-1.811 -0.479,-3.676 -0.3,-5.519 0.171,-1.844 0.654,-3.653 1.372,-5.355 l -0.013,0.132 c -0.838,-4.201 -1.598,-8.418 -2.318,-12.642 0.974,4.174 1.907,8.355 2.762,12.553 0.009,0.045 0.003,0.092 -0.013,0.132 -1.366,3.337 -1.759,7.069 -1.066,10.614 0.349,1.77 0.931,3.499 1.776,5.105 0.845,1.603 1.899,3.106 3.167,4.423 z"
   style="fill:#ffffff" />
						</g>
					</g>
					
						<path
   inkscape:connector-curvature="0"
   id="path693"
   d="m 260.921,159.863 5.445,0.817 c -2.42,6.28 -8.63,11.13 -15.41,11.42 -7.28,0.32 -14.36,-4.66 -16.93,-11.42 l 5.293,-1.266"
   style="fill:#f5f5ff;stroke:#2e2e2e;stroke-width:0.5;stroke-linecap:round;stroke-linejoin:round;stroke-miterlimit:10" />
				</g>
				<g
   id="g719">
					<path
   inkscape:connector-curvature="0"
   id="path697"
   d="m 225.914,186.078 c 0,0.673 -0.545,1.218 -1.217,1.218 -0.672,0 -1.217,-0.545 -1.217,-1.218 0,-0.672 0.545,-1.217 1.217,-1.217 0.672,0 1.217,0.545 1.217,1.217 z"
   style="fill:#f5f5ff" />
					<path
   inkscape:connector-curvature="0"
   id="path699"
   d="m 237.868,215.963 c 0,1.284 -1.041,2.324 -2.324,2.324 -1.284,0 -2.324,-1.041 -2.324,-2.324 0,-1.283 1.041,-2.324 2.324,-2.324 1.283,-0.001 2.324,1.04 2.324,2.324 z"
   style="fill:#f5f5ff" />
					<path
   inkscape:connector-curvature="0"
   id="path701"
   d="m 273.508,196.372 c 0,0.856 -0.694,1.55 -1.55,1.55 -0.856,0 -1.55,-0.694 -1.55,-1.55 0,-0.856 0.694,-1.549 1.55,-1.549 0.856,-0.001 1.55,0.693 1.55,1.549 z"
   style="fill:#f5f5ff" />
					<circle
   id="circle703"
   r="3.21"
   cy="191.834"
   cx="252.367"
   style="fill:#f5f5ff" />
					<path
   inkscape:connector-curvature="0"
   id="path705"
   d="m 279.263,168.148 c 0,0.672 -0.545,1.217 -1.218,1.217 -0.672,0 -1.217,-0.545 -1.217,-1.217 0,-0.672 0.545,-1.217 1.217,-1.217 0.673,-0.001 1.218,0.544 1.218,1.217 z"
   style="fill:#f5f5ff" />
					<path
   inkscape:connector-curvature="0"
   id="path707"
   d="m 225.914,169.697 c 0,1.284 -1.041,2.324 -2.324,2.324 -1.284,0 -2.324,-1.041 -2.324,-2.324 0,-1.284 1.041,-2.324 2.324,-2.324 1.283,0 2.324,1.041 2.324,2.324 z"
   style="fill:#f5f5ff" />
					<circle
   id="circle709"
   r="1.882"
   cy="217.73399"
   cx="264.54199"
   style="fill:#f5f5ff" />
					<circle
   id="circle711"
   r="1.771"
   cy="205.448"
   cx="225.25"
   style="fill:#f5f5ff" />
					<path
   inkscape:connector-curvature="0"
   id="path713"
   d="m 269.966,179.991 c 0,0.856 -0.694,1.55 -1.549,1.55 -0.855,0 -1.55,-0.694 -1.55,-1.55 0,-0.856 0.694,-1.549 1.55,-1.549 0.856,0 1.549,0.693 1.549,1.549 z"
   style="fill:#f5f5ff" />
					<circle
   id="circle715"
   r="1.771"
   cy="180.655"
   cx="243.40199"
   style="fill:#f5f5ff" />
					<path
   inkscape:connector-curvature="0"
   id="path717"
   d="m 253.585,220.722 c 0,0.489 -0.396,0.885 -0.885,0.885 -0.489,0 -0.885,-0.396 -0.885,-0.885 0,-0.489 0.396,-0.885 0.885,-0.885 0.488,0 0.885,0.396 0.885,0.885 z"
   style="fill:#f5f5ff" />
				</g>
			</g>
		</g>
	</g>
</svg>