<?xml version="1.0" encoding="UTF-8" standalone="no"?>
<!-- Generator: Adobe Illustrator 27.5.0, SVG Export Plug-In . SVG Version: 6.00 Build 0)  -->

<svg
   xmlns:dc="http://purl.org/dc/elements/1.1/"
   xmlns:cc="http://creativecommons.org/ns#"
   xmlns:rdf="http://www.w3.org/1999/02/22-rdf-syntax-ns#"
   xmlns:svg="http://www.w3.org/2000/svg"
   xmlns="http://www.w3.org/2000/svg"
   xmlns:sodipodi="http://sodipodi.sourceforge.net/DTD/sodipodi-0.dtd"
   xmlns:inkscape="http://www.inkscape.org/namespaces/inkscape"
   version="1.1"
   x="0px"
   y="0px"
   viewBox="0 0 500 500"
   style="enable-background:new 0 0 500 500;"
   xml:space="preserve"
   id="svg1066"
   sodipodi:docname="user-1.svg"
   inkscape:version="0.92.3 (2405546, 2018-03-11)"><metadata
   id="metadata1072"><rdf:RDF><cc:Work
       rdf:about=""><dc:format>image/svg+xml</dc:format><dc:type
         rdf:resource="http://purl.org/dc/dcmitype/StillImage" /></cc:Work></rdf:RDF></metadata><defs
   id="defs1070" /><sodipodi:namedview
   pagecolor="#ffffff"
   bordercolor="#666666"
   borderopacity="1"
   objecttolerance="10"
   gridtolerance="10"
   guidetolerance="10"
   inkscape:pageopacity="0"
   inkscape:pageshadow="2"
   inkscape:window-width="1280"
   inkscape:window-height="739"
   id="namedview1068"
   showgrid="false"
   inkscape:zoom="0.944"
   inkscape:cx="250"
   inkscape:cy="250"
   inkscape:window-x="-9"
   inkscape:window-y="-9"
   inkscape:window-maximized="1"
   inkscape:current-layer="g1051" />

<g
   id="OBJECTS">
	
	
	
	
	
	<g
   id="g1063"
   transform="matrix(2.5584561,0,0,2.454059,-17.696032,-110.76974)">
		
			<circle
   transform="matrix(0.2374,-0.9714,0.9714,0.2374,-42.418,196.2651)"
   style="fill:#00d455"
   cx="103.797"
   cy="125.15"
   id="ellipse909"
   r="60.618" />
		<g
   id="g1061">
			<g
   id="g1035">
				<path
   style="fill:#2e2e2e"
   d="m 72.07,95.211 c -0.859,-2.472 -0.679,-5.319 0.484,-7.651 1.163,-2.331 3.291,-4.112 5.718,-4.785 0.257,-3.783 3.486,-6.735 7.103,-6.599 0.294,-1.783 1.701,-3.427 3.316,-4.068 1.614,-0.641 3.542,-0.322 4.89,0.808 0.432,-1.677 1.542,-3.266 3.165,-3.618 1.623,-0.352 3.411,0.325 4.443,1.683 0.872,-1.959 2.817,-2.421 4.876,-2.568 2.058,-0.148 4.156,0.954 5.275,2.771 1.381,-1.735 3.659,-2.159 5.673,-1.353 2.014,0.806 3.425,3.034 3.351,5.292 1.297,-1.028 3.368,-0.709 4.819,0.062 1.451,0.771 2.417,2.449 2.392,4.153 1.809,0.04 3.433,1.117 4.457,2.679 1.024,1.562 1.281,3.647 0.668,5.431 1.818,0.242 3.149,2.402 3.75,4.216 0.601,1.814 0.141,3.966 -1.142,5.337 1.49,0.988 1.995,3.324 2.264,5.15 0.269,1.826 -0.25,3.764 -1.387,5.177 1.199,1.158 1.368,3.632 1.148,5.325 -0.219,1.693 -1.266,3.244 -2.716,4.025 1.111,1.193 0.521,3.76 -0.182,5.256 -0.703,1.495 -2.355,2.435 -3.936,2.238 0.468,1.578 -0.734,3.961 -2.003,4.942 -1.269,0.982 -3.134,1.017 -4.435,0.083 -0.398,3.865 -5.033,8.11 -8.719,7.662 -0.923,1.575 -3.062,3.034 -4.823,3.141 -1.761,0.107 -3.55,-0.738 -4.641,-2.191 -0.65,1.71 -3.055,3.605 -4.811,3.608 -1.757,0.004 -3.461,-1.199 -4.117,-2.906 -2.952,1.758 -8.049,-0.226 -9.464,-3.461 -1.296,1.324 -4.209,2.023 -5.746,1.022 -1.537,-1.002 -2.287,-3.157 -1.727,-4.96 -1.441,0.152 -3.246,-0.644 -4.237,-1.751 -0.99,-1.107 -1.453,-2.71 -1.214,-4.207 -1.373,-0.181 -2.694,-1.826 -3.188,-3.18 -0.494,-1.354 -0.219,-2.983 0.688,-4.078 -1.22,-0.936 -1.768,-3.041 -1.852,-4.623 -0.083,-1.582 0.542,-3.189 1.656,-4.26 -2.183,-2.065 -2.513,-6.46 -0.346,-8.543 -0.872,-0.529 -1.129,-1.288 -1.168,-2.342 -0.037,-1.054 0.888,-2.32 1.718,-2.917 z"
   id="path911"
   inkscape:connector-curvature="0" />
				<g
   id="g937">
					<g
   id="g923">
						<g
   id="g919">
							<g
   id="g917">
								<g
   id="g915">
									
										<path
   style="fill:#f5f5ff;stroke:#2e2e2e;stroke-width:0.53500003;stroke-linecap:round;stroke-linejoin:round;stroke-miterlimit:10"
   d="m 120.544,112.278 c -2.473,3.973 -2.234,8.679 0.534,10.511 2.769,1.832 7.018,0.098 9.492,-3.875 2.474,-3.973 2.235,-8.679 -0.534,-10.511 -2.769,-1.833 -7.019,-0.098 -9.492,3.875 z"
   id="path913"
   inkscape:connector-curvature="0" />
								</g>
							</g>
						</g>
						
							<path
   style="fill:none;stroke:#2e2e2e;stroke-width:0.53500003;stroke-linecap:round;stroke-linejoin:round;stroke-miterlimit:10"
   d="m 127.952,110.31 c 1.199,0.468 2.11,1.607 2.304,2.879 0.194,1.273 -0.336,2.631 -1.341,3.436"
   id="path921"
   inkscape:connector-curvature="0" />
					</g>
					<g
   id="g935">
						<g
   id="g931">
							<g
   id="g929">
								<g
   id="g927">
									
										<path
   style="fill:#f5f5ff;stroke:#2e2e2e;stroke-width:0.53500003;stroke-linecap:round;stroke-linejoin:round;stroke-miterlimit:10"
   d="m 87.152,112.278 c 2.474,3.973 2.235,8.679 -0.534,10.511 -2.769,1.832 -7.018,0.098 -9.492,-3.875 -2.474,-3.973 -2.234,-8.679 0.534,-10.511 2.769,-1.833 7.018,-0.098 9.492,3.875 z"
   id="path925"
   inkscape:connector-curvature="0" />
								</g>
							</g>
						</g>
						
							<path
   style="fill:none;stroke:#2e2e2e;stroke-width:0.53500003;stroke-linecap:round;stroke-linejoin:round;stroke-miterlimit:10"
   d="m 79.743,110.31 c -1.199,0.468 -2.11,1.607 -2.304,2.879 -0.194,1.273 0.336,2.631 1.341,3.436"
   id="path933"
   inkscape:connector-curvature="0" />
					</g>
				</g>
				<g
   id="g943">
					
						<path
   style="fill:#f5f5ff;stroke:#2e2e2e;stroke-width:0.5589;stroke-linecap:round;stroke-linejoin:round;stroke-miterlimit:10"
   d="m 115.721,158.262 c 0.224,6.718 -5.153,12.273 -11.871,12.273 -6.584,0 -11.882,-5.343 -11.882,-11.871 0,-0.134 0,-0.268 0.011,-0.402 l 1.319,-17.705 0.335,-4.482 0.659,-8.797 h 19.103 l 1.051,13.905 0.749,10.116 z"
   id="path939"
   inkscape:connector-curvature="0" />
					<path
   style="fill:#2e2e2e"
   d="m 115.195,151.298 c -6.271,0.447 -13.178,-2.671 -17.918,-8.73 -1.598,-2.034 -2.817,-4.236 -3.644,-6.494 l 0.659,-8.797 h 19.103 l 1.051,13.905 z"
   id="path941"
   inkscape:connector-curvature="0" />
				</g>
				<g
   id="g951">
					
						<path
   style="fill:#f5f5ff;stroke:#2e2e2e;stroke-width:0.53500003;stroke-linecap:round;stroke-linejoin:round;stroke-miterlimit:10"
   d="m 124.299,124.053 c -0.744,1.907 -1.819,3.903 -3.112,5.835 -2.492,3.72 -5.793,7.211 -9.089,9.425 -3.614,2.421 -8.351,3.213 -12.473,1.807 -3.242,-1.104 -5.918,-3.425 -8.31,-5.882 -2.982,-3.059 -5.705,-6.484 -7.234,-10.477 -1.187,-3.106 -1.695,-6.561 -1.83,-10.099 -0.189,-4.902 0.336,-9.957 0.756,-14.463 0.614,-6.638 4.636,-12.939 10.37,-16.317 5.622,-3.307 12.809,-3.803 18.833,-1.287 6.018,2.516 10.725,7.973 12.319,14.303 1.14,4.5 0.75,9.172 0.821,13.76 0.018,1.287 0.077,2.587 0.106,3.886 0.089,3.231 0.024,6.461 -1.157,9.509 z"
   id="path945"
   inkscape:connector-curvature="0" />
					<path
   style="fill:#2e2e2e"
   d="m 125.533,114.546 v 0.16 l -0.118,-0.107 c -1.487,-1.295 -2.397,-3.167 -2.493,-5.125 l -0.781,-14.819 c -0.781,-0.31 -1.53,-0.631 -2.29,-0.984 -1.134,-0.546 -2.236,-1.134 -3.263,-1.766 -2.236,-1.338 -4.184,-2.868 -5.66,-4.44 -2.119,0.514 -4.537,0.781 -6.998,0.781 -2.868,0 -5.639,-0.364 -8.014,-1.059 -1.38,1.541 -3.199,3.028 -5.296,4.355 -1.198,0.77 -2.493,1.487 -3.863,2.129 -0.3,0.139 -0.631,0.289 -1.027,0.46 l -0.781,15.344 c -0.107,2.044 -1.07,3.948 -2.643,5.243 l -0.118,0.096 -0.011,-0.15 c -0.171,-4.558 0.278,-9.309 0.663,-13.493 l 0.096,-0.974 c 0.396,-4.291 2.172,-8.4 4.943,-11.706 1.541,-1.851 3.392,-3.445 5.468,-4.676 5.628,-3.306 12.872,-3.809 18.896,-1.284 2.964,1.23 5.628,3.199 7.747,5.639 2.183,2.493 3.799,5.5 4.612,8.71 0.877,3.467 0.856,7.083 0.824,10.582 -0.011,1.049 -0.011,2.14 0,3.199 0.011,0.738 0.032,1.498 0.064,2.236 0.011,0.547 0.032,1.093 0.043,1.649 z"
   id="path947"
   inkscape:connector-curvature="0" />
					<path
   style="fill:#2e2e2e"
   d="m 119.99,88.171 c -2.119,-2.44 -4.783,-4.408 -7.747,-5.639 -6.024,-2.525 -13.268,-2.022 -18.896,1.284 -2.076,1.231 -3.927,2.825 -5.468,4.676 0.385,0.646 0.869,1.258 1.424,1.84 0.057,1.349 0.652,2.675 1.648,3.59 1.168,1.072 2.853,1.554 4.411,1.261 0.299,1.18 1.69,2.394 2.895,2.57 1.204,0.176 2.486,-0.434 3.11,-1.479 0.675,1.044 2.076,1.959 3.314,1.854 1.239,-0.105 2.389,-0.936 2.879,-2.078 0.731,1.234 1.889,2.31 3.309,2.117 1.421,-0.193 2.676,-1.295 3.051,-2.679 1.789,0.516 3.892,-0.338 4.339,-2.145 0.21,-0.847 0.028,-1.742 -0.402,-2.499 0.88,-0.821 1.61,-1.714 2.133,-2.673 z"
   id="path949"
   inkscape:connector-curvature="0" />
				</g>
				<g
   id="g1033">
					<g
   id="g967">
						
							<path
   style="fill:#f5f5ff;stroke:#2e2e2e;stroke-width:0.62120003;stroke-linecap:round;stroke-linejoin:round;stroke-miterlimit:10"
   d="m 110.205,129.103 c 0,1.66 -3.555,3.007 -5.969,3.007 -2.27,0 -6.89,-1.346 -6.89,-3.007"
   id="path953"
   inkscape:connector-curvature="0" />
						<path
   style="fill:#2e2e2e;stroke:#2e2e2e;stroke-width:0.46079999;stroke-miterlimit:10"
   d="m 110.205,129.058 v 0.031 H 97.346 v -0.031 c 0,-1.263 4.476,-2.287 6.89,-2.287 2.271,0 5.969,1.024 5.969,2.287 z"
   id="path955"
   inkscape:connector-curvature="0" />
						<g
   id="g959">
							<path
   style="fill:#2e2e2e"
   d="m 109.176,127.779 c 0.649,0.416 1.66,0.498 2.517,0.063 l 0.008,-0.004 c 0.133,-0.068 0.296,-0.014 0.364,0.119 0.053,0.104 0.032,0.226 -0.043,0.307 -0.778,0.839 -2.043,1.315 -3.363,1.081 l -0.089,-0.016 c -0.462,-0.082 -0.77,-0.522 -0.688,-0.984 0.082,-0.462 0.522,-0.77 0.984,-0.688 0.112,0.02 0.219,0.064 0.31,0.122 z"
   id="path957"
   inkscape:connector-curvature="0" />
						</g>
						<g
   id="g963">
							<path
   style="fill:#2e2e2e"
   d="m 99.037,129.345 c -1.319,0.233 -2.584,-0.242 -3.363,-1.081 -0.102,-0.11 -0.095,-0.281 0.014,-0.383 0.085,-0.079 0.208,-0.093 0.306,-0.043 l 0.008,0.004 c 0.857,0.435 1.868,0.353 2.516,-0.063 0.395,-0.253 0.92,-0.139 1.173,0.256 0.253,0.395 0.139,0.92 -0.256,1.173 -0.096,0.062 -0.201,0.102 -0.307,0.121 z"
   id="path961"
   inkscape:connector-curvature="0" />
						</g>
						
							<path
   style="fill:#2e2e2e;stroke:#2e2e2e;stroke-width:0.92159998;stroke-linecap:round;stroke-linejoin:round;stroke-miterlimit:10"
   d="m 101.926,128.817 c 0.534,0.49 1.243,0.785 1.967,0.818 0.724,0.033 1.457,-0.196 2.034,-0.635"
   id="path965"
   inkscape:connector-curvature="0" />
					</g>
					<g
   id="g977">
						<g
   id="g971">
							<path
   style="fill:#2e2e2e"
   d="m 107.094,106.643 c 0.505,-1.228 1.508,-2.133 2.62,-2.757 1.124,-0.618 2.399,-0.956 3.688,-0.998 1.289,-0.044 2.58,0.214 3.74,0.754 1.149,0.547 2.206,1.373 2.809,2.558 l -3.436,-0.093 c -1.041,-0.019 -2.031,-0.014 -3.011,0.014 -0.98,0.031 -1.966,0.087 -3,0.175 -1.044,0.082 -2.105,0.2 -3.41,0.347 z"
   id="path969"
   inkscape:connector-curvature="0" />
						</g>
						<g
   id="g975">
							<path
   style="fill:#2e2e2e"
   d="m 100.601,106.643 c -1.305,-0.147 -2.366,-0.265 -3.409,-0.349 -1.034,-0.088 -2.019,-0.144 -3,-0.175 -0.981,-0.028 -1.97,-0.033 -3.011,-0.014 l -3.436,0.094 c 0.603,-1.185 1.66,-2.011 2.809,-2.558 1.16,-0.54 2.45,-0.798 3.74,-0.754 1.289,0.042 2.564,0.38 3.688,0.998 1.112,0.626 2.114,1.53 2.619,2.758 z"
   id="path973"
   inkscape:connector-curvature="0" />
						</g>
					</g>
					<g
   id="g1023">
						<g
   id="g999">
							<g
   id="g995">
								<g
   id="g993">
									<g
   id="g991">
										<g
   id="g989">
											<g
   id="g987">
												<g
   id="g981">
													<path
   style="fill:#2e2e2e"
   d="m 107.695,115.308 c 0.232,-0.516 0.491,-1.016 0.736,-1.524 l 0.021,-0.031 c 0.611,-0.918 1.377,-1.805 2.401,-2.385 1.004,-0.597 2.214,-0.899 3.386,-0.826 1.165,0.058 2.314,0.407 3.303,1.009 0.494,0.298 0.945,0.654 1.361,1.038 0.414,0.378 0.787,0.838 0.939,1.397 l 0.003,0.01 c 0.037,0.136 -0.043,0.277 -0.179,0.314 -0.059,0.016 -0.118,0.01 -0.17,-0.012 -0.551,-0.241 -0.909,-0.561 -1.307,-0.875 -0.394,-0.308 -0.815,-0.574 -1.251,-0.797 -0.864,-0.454 -1.813,-0.715 -2.775,-0.792 -0.956,-0.077 -1.91,0.094 -2.777,0.516 -0.862,0.43 -1.641,1.085 -2.309,1.863 l 0.02,-0.03 c -0.335,0.454 -0.655,0.917 -1.002,1.364 -0.079,0.102 -0.227,0.121 -0.329,0.041 -0.089,-0.066 -0.115,-0.183 -0.071,-0.28 z"
   id="path979"
   inkscape:connector-curvature="0" />
												</g>
												<path
   style="fill:#2e2e2e"
   d="m 111.637,113.326 c 0.078,-1.084 1.02,-1.899 2.104,-1.821 1.084,0.078 1.899,1.02 1.821,2.104 -0.078,1.084 -1.02,1.899 -2.104,1.821 -1.084,-0.078 -1.899,-1.02 -1.821,-2.104 z"
   id="path983"
   inkscape:connector-curvature="0" />
												
													<path
   style="fill:none;stroke:#2e2e2e;stroke-width:0.53500003;stroke-linecap:round;stroke-linejoin:round;stroke-miterlimit:10"
   d="m 117.57,115.122 c 0.724,-0.161 1.409,-0.49 1.988,-0.953"
   id="path985"
   inkscape:connector-curvature="0" />
											</g>
										</g>
									</g>
								</g>
							</g>
							
								<path
   style="fill:none;stroke:#2e2e2e;stroke-width:0.53500003;stroke-linecap:round;stroke-linejoin:round;stroke-miterlimit:10"
   d="m 107.649,112.005 c 0.811,-1.382 2.123,-2.462 3.634,-2.993 1.511,-0.531 3.21,-0.509 4.707,0.062"
   id="path997"
   inkscape:connector-curvature="0" />
						</g>
						<g
   id="g1021">
							<g
   id="g1017">
								<g
   id="g1015">
									<g
   id="g1013">
										<g
   id="g1011">
											<g
   id="g1009">
												<g
   id="g1003">
													<path
   style="fill:#2e2e2e"
   d="m 99.601,115.549 c -0.347,-0.447 -0.667,-0.91 -1.002,-1.364 l 0.02,0.03 c -0.668,-0.778 -1.447,-1.433 -2.309,-1.863 -0.867,-0.422 -1.821,-0.593 -2.777,-0.516 -0.961,0.077 -1.91,0.338 -2.774,0.792 -0.436,0.223 -0.856,0.489 -1.251,0.797 -0.398,0.313 -0.756,0.633 -1.307,0.875 -0.13,0.057 -0.28,-0.002 -0.337,-0.132 -0.024,-0.056 -0.027,-0.115 -0.013,-0.17 l 0.003,-0.01 c 0.152,-0.559 0.525,-1.019 0.939,-1.397 0.416,-0.385 0.866,-0.741 1.361,-1.038 0.989,-0.602 2.137,-0.951 3.303,-1.009 1.172,-0.073 2.382,0.229 3.386,0.826 1.024,0.58 1.791,1.467 2.401,2.385 l 0.021,0.031 c 0.245,0.508 0.503,1.008 0.736,1.524 0.053,0.118 10e-4,0.257 -0.118,0.311 -0.101,0.043 -0.217,0.011 -0.282,-0.072 z"
   id="path1001"
   inkscape:connector-curvature="0" />
												</g>
												<path
   style="fill:#2e2e2e"
   d="m 96.058,113.326 c -0.078,-1.084 -1.02,-1.899 -2.104,-1.821 -1.084,0.078 -1.899,1.02 -1.821,2.104 0.078,1.084 1.02,1.899 2.104,1.821 1.084,-0.078 1.899,-1.02 1.821,-2.104 z"
   id="path1005"
   inkscape:connector-curvature="0" />
												
													<path
   style="fill:none;stroke:#2e2e2e;stroke-width:0.53500003;stroke-linecap:round;stroke-linejoin:round;stroke-miterlimit:10"
   d="m 90.125,115.122 c -0.723,-0.161 -1.409,-0.49 -1.988,-0.953"
   id="path1007"
   inkscape:connector-curvature="0" />
											</g>
										</g>
									</g>
								</g>
							</g>
							
								<path
   style="fill:none;stroke:#2e2e2e;stroke-width:0.53500003;stroke-linecap:round;stroke-linejoin:round;stroke-miterlimit:10"
   d="m 100.046,112.005 c -0.811,-1.382 -2.123,-2.462 -3.634,-2.993 -1.511,-0.531 -3.21,-0.509 -4.707,0.062"
   id="path1019"
   inkscape:connector-curvature="0" />
						</g>
					</g>
					<g
   id="g1031">
						
							<path
   style="fill:none;stroke:#2e2e2e;stroke-width:0.62059999;stroke-linecap:round;stroke-linejoin:round;stroke-miterlimit:10"
   d="m 100.747,122.496 c -1.06,0.129 -1.665,-1.021 -1.167,-1.965"
   id="path1025"
   inkscape:connector-curvature="0" />
						
							<path
   style="fill:none;stroke:#2e2e2e;stroke-width:0.62059999;stroke-linecap:round;stroke-linejoin:round;stroke-miterlimit:10"
   d="m 106.948,122.602 c 1.059,0.129 1.664,-1.021 1.167,-1.965"
   id="path1027"
   inkscape:connector-curvature="0" />
						
							<path
   style="fill:none;stroke:#2e2e2e;stroke-width:0.62059999;stroke-linecap:round;stroke-linejoin:round;stroke-miterlimit:10"
   d="m 100.654,122.34 c 1.706,1.566 4.596,1.613 6.351,0.103"
   id="path1029"
   inkscape:connector-curvature="0" />
					</g>
				</g>
			</g>
			<g
   id="g1053">
				<g
   id="g1043">
					<path
   style="fill:#2e2e2e"
   d="m 149.988,204.131 c -9.117,4.114 -17.441,5.382 -18.591,2.832 -1.15,-2.55 5.308,-7.952 14.425,-12.065 9.117,-4.114 17.441,-5.382 18.591,-2.832 1.15,2.549 -5.308,7.951 -14.425,12.065 z"
   id="path1037"
   inkscape:connector-curvature="0" />
					
						<path
   style="fill:#f5f5ff;stroke:#2e2e2e;stroke-width:0.53500003;stroke-linecap:round;stroke-linejoin:round;stroke-miterlimit:10"
   d="m 145.983,226.525 -4.268,-10.368 -3.417,-8.307 -2.88,-7.008 -6.329,-15.38 c -3.333,-8.092 -0.057,-17.057 7.13,-19.519 1.255,-0.43 2.54,-0.624 3.814,-0.614 0.118,0.001 0.235,0.002 0.353,0.013 5.573,0.201 10.957,4.339 13.115,10.657 l 5.123,14.975 2.294,6.715 9.91,29.017"
   id="path1039"
   inkscape:connector-curvature="0" />
					
						<path
   style="fill:#aaffcc;stroke:#2e2e2e;stroke-width:0.53500003;stroke-linecap:round;stroke-linejoin:round;stroke-miterlimit:10"
   d="m 164.216,191.757 c -1.686,-2.128 -9.672,-0.788 -18.39,3.136 -9.119,4.117 -15.585,9.52 -14.425,12.076 0.028,0.055 0.055,0.097 0.097,0.152 l -0.097,0.042 -10.072,-23.613 c -3.952,-9.271 0.318,-19.841 9.299,-22.977 1.699,-0.594 3.426,-0.884 5.153,-0.884 6.149,0 12.048,3.648 15.074,9.561 z"
   id="path1041"
   inkscape:connector-curvature="0" />
				</g>
				<g
   id="g1051">
					<path
   style="fill:#2e2e2e"
   d="m 57.829,204.289 c 9.117,4.114 17.441,5.382 18.591,2.832 1.15,-2.55 -5.308,-7.952 -14.425,-12.066 -9.117,-4.114 -17.44,-5.382 -18.591,-2.832 -1.15,2.55 5.308,7.952 14.425,12.066 z"
   id="path1045"
   inkscape:connector-curvature="0" />
					
						<path
   style="fill:#f5f5ff;stroke:#2e2e2e;stroke-width:0.53500003;stroke-linecap:round;stroke-linejoin:round;stroke-miterlimit:10"
   d="m 36.767,226.707 10.122,-28.933 2.343,-6.709 5.232,-14.937 C 56.711,169.697 62.307,165.556 68,165.556 h 0.075 c 1.252,0.011 2.504,0.214 3.734,0.642 7.169,2.514 10.39,11.503 6.998,19.57 l -6.441,15.333 v 0.011 l -2.932,6.976 -3.124,7.436 -4.697,11.182"
   id="path1047"
   inkscape:connector-curvature="0" />
					
						<path
   style="fill:#aaffcc;stroke:#2e2e2e;stroke-width:0.53500003;stroke-linecap:round;stroke-linejoin:round;stroke-miterlimit:10"
   d="m 43.602,191.914 c 1.686,-2.128 9.672,-0.788 18.39,3.136 9.119,4.117 15.585,9.52 14.425,12.076 -0.028,0.055 -0.055,0.097 -0.097,0.152 l 0.097,0.042 10.072,-23.613 c 3.952,-9.271 -0.318,-19.841 -9.299,-22.977 -1.699,-0.594 -3.426,-0.884 -5.153,-0.884 -6.149,0 -12.048,3.648 -15.074,9.561 z"
   id="path1049"
   inkscape:connector-curvature="0" />
				</g>
			</g>
			<g
   id="g1059"
   style="fill:#aaffcc">
				
					<polygon
   style="fill:#aaffcc;stroke:#2e2e2e;stroke-width:0.53500003;stroke-linecap:round;stroke-linejoin:round;stroke-miterlimit:10"
   points="66.042,215.525 66.32,207.457 66.674,197.549 67.808,165.556 67.981,160.192 84.746,154.738 87.507,153.743 88.876,153.24 92.45,151.318 93.531,151.318 114.182,151.318 114.61,151.318 118.622,153.165 119.981,153.658 122.742,154.653 139.767,160.192 139.894,165.567 140.504,183.586 140.964,197.357 141.295,207.318 141.295,207.372 141.595,216.37 141.948,226.707 65.646,226.707 "
   id="polygon1055" />
				
					<path
   style="fill:#aaffcc;stroke:#2e2e2e;stroke-width:0.53500003;stroke-linecap:round;stroke-linejoin:round;stroke-miterlimit:10"
   d="m 115.302,150.84 2.785,2.093 1.303,0.469 c -0.974,7.771 -7.607,13.77 -15.648,13.77 -8.006,0 -14.627,-5.964 -15.648,-13.688 l 1.327,-0.481 3.164,-2.545"
   id="path1057"
   inkscape:connector-curvature="0" />
			</g>
		</g>
	</g>
</g>
</svg>